<?xml version="1.0" encoding="UTF-8"?>
<svg id="Layer_2" data-name="Layer 2" xmlns="http://www.w3.org/2000/svg" viewBox="0 0 266.48 284.32">
  <defs>
    <style>
      .cls-1 {
        fill: #b3b3b3;
      }

      .cls-1, .cls-2, .cls-3, .cls-4, .cls-5, .cls-6, .cls-7 {
        stroke-width: 0px;
      }

      .cls-2 {
        fill: none;
      }

      .cls-3 {
        fill: #8484b2;
      }

      .cls-4 {
        fill: gray;
      }

      .cls-5 {
        fill: #f9e448;
      }

      .cls-6 {
        fill: #3d3a7e;
      }

      .cls-7 {
        fill: #ccc;
      }
    </style>
  </defs>
  <g id="Layer_1-2" data-name="Layer 1">
    <g>
      <path class="cls-6" d="M109.72,13.58L3.68,197.24c-10.46,18.11,2.61,40.74,23.52,40.74h212.07c20.91,0,33.98-22.64,23.52-40.74L156.76,13.58c-10.46-18.11-36.59-18.11-47.05,0Z"/>
      <g>
        <polygon class="cls-2" points="92.71 171.79 173.77 171.79 133.24 101.58 92.71 171.79"/>
        <polygon class="cls-2" points="74.07 171.79 82.36 171.79 133.24 83.67 184.12 171.79 192.41 171.79 133.24 69.31 74.07 171.79"/>
        <path class="cls-2" d="M131.18,43.17L56.92,171.79h6.81l69.51-120.39,69.51,120.39h6.81L135.3,43.17c-.91-1.57-3.2-1.57-4.11,0Z"/>
        <polygon class="cls-5" points="82.36 171.79 92.71 171.79 133.24 101.58 173.77 171.79 184.12 171.79 133.24 83.67 82.36 171.79"/>
        <polygon class="cls-5" points="63.73 171.79 74.07 171.79 133.24 69.31 192.41 171.79 202.75 171.79 133.24 51.39 63.73 171.79"/>
        <path class="cls-5" d="M143.05,38.69c-2.05-3.55-5.72-5.67-9.81-5.67s-7.77,2.12-9.81,5.67L46.58,171.79h10.34L131.18,43.17c.91-1.57,3.2-1.57,4.11,0l74.26,128.62h10.34L143.05,38.69Z"/>
      </g>
      <rect class="cls-4" x="75.32" y="197.44" width="118.25" height="6.19"/>
      <g>
        <path class="cls-7" d="M165.01,200.53h-24.16c4.99,4.49,8.14,10.98,8.14,18.22,0,13.55-10.98,24.53-24.53,24.53s-24.53-10.98-24.53-24.53c0-7.24,3.16-13.73,8.14-18.22h-21.01c-.9,6.4-1.47,13.12-1.47,19.91,0,32.79,13.12,63.88,13.12,63.88h77.92s-13.12-29.25-13.12-63.88c0-6.76.58-13.49,1.5-19.91Z"/>
        <path class="cls-1" d="M116.17,222.73c.42.03,1.13.02,2.14-.01l2.83-.12v-.1c.03-.31-.02-1.22-.15-2.72-.12-1.5-.23-2.43-.31-2.79-.18-.95-.59-1.61-1.23-1.96-.27-.16-.59-.25-.97-.27-.42-.03-.75.05-1.01.24-.41.36-.94,1.28-1.59,2.76-.24.51-.42,1.38-.54,2.63-.01.21-.04.45-.07.72-.04.28-.06.45-.06.52-.03.38.03.65.15.82.13.16.4.26.81.29Z"/>
        <path class="cls-1" d="M131.38,222.4c1.23-.09,2.02-.21,2.37-.36l.59-.27v-1.46c.01-.24-.16-2.34-.52-6.3-.12-.81-.26-1.37-.41-1.7-.28-.51-.82-.79-1.61-.84-.83-.06-1.69.32-2.58,1.13-.89.81-1.52,1.69-1.9,2.64-.17.44-.28,1.06-.33,1.86,0,.07-.05,1.25-.13,3.54l-.07,1.82,1.35.04c.94.03,2.02,0,3.24-.1Z"/>
        <path class="cls-1" d="M99.93,218.75c0,13.55,10.98,24.53,24.53,24.53s24.53-10.98,24.53-24.53c0-7.24-3.16-13.73-8.14-18.22h-32.77c-4.99,4.49-8.14,10.98-8.14,18.22ZM109.79,216.83c.42,0,.71,0,.89,0l.15-.62c.17-.44.57-1.21,1.2-2.32.6-1.11,1.21-1.95,1.84-2.54,1.44-1.26,3.1-1.83,4.97-1.7.45.03.8.07,1.03.12,1.27.26,2.45.79,3.54,1.59l.63-.79c1.34-1.79,3.01-3.07,5.01-3.84,1-.42,2.02-.59,3.06-.52.66.04,1.34.19,2.06.45,1.32.51,2.37,1.22,3.14,2.14.9,1.1,1.44,2.34,1.63,3.71.04.39.1.65.16.79.06.14.13.2.2.17.53-.14.98-.16,1.36-.06.17.05.28.15.32.31.04.16.09.62.14,1.39.02.28.04.7.07,1.26.03.56.06.93.08,1.1v.83c-.18.02-.44.09-.8.21-.35.12-.62.19-.8.21l-.13,2.76-.09,1.35c-.06.87-.16,1.42-.3,1.68-.14.25-.48.59-1.03,1-1.21.93-2.29,1.5-3.25,1.71-1.41.36-3.96.52-7.65.48-2.19,0-3.55.02-4.08.09-3.01.22-5.68.25-8.04.09-1.31-.09-2.43-.6-3.34-1.53-.94-.97-1.51-2.07-1.71-3.3l-.19-1-.88-.06c-.55-.04-.93-.1-1.14-.18-.13-.04-.19-.26-.17-.64.04-.59.28-1.56.72-2.93l.51-1.43c.17.01.47.01.89,0Z"/>
        <path class="cls-3" d="M107.67,221.17c-.03.38.03.59.17.64.2.08.58.14,1.14.18l.88.06.19,1c.2,1.23.77,2.33,1.71,3.3.91.93,2.03,1.44,3.34,1.53,2.36.16,5.04.13,8.04-.09.53-.07,1.88-.1,4.08-.09,3.69.04,6.24-.12,7.65-.48.95-.21,2.04-.78,3.25-1.71.55-.41.89-.75,1.03-1,.14-.25.24-.81.3-1.68l.09-1.35.13-2.76c.18-.02.44-.09.8-.21.36-.11.62-.18.8-.21v-.83c-.02-.18-.05-.54-.08-1.1-.03-.56-.06-.98-.07-1.26-.05-.77-.1-1.23-.14-1.39-.04-.16-.15-.26-.32-.31-.38-.09-.83-.07-1.36.06-.07.03-.14-.03-.2-.17-.06-.14-.11-.41-.16-.79-.19-1.37-.73-2.61-1.63-3.71-.77-.92-1.82-1.64-3.14-2.14-.71-.26-1.4-.41-2.06-.45-1.04-.07-2.06.11-3.06.52-2,.77-3.67,2.05-5.01,3.84l-.63.79c-1.09-.8-2.27-1.33-3.54-1.59-.24-.05-.58-.09-1.03-.12-1.87-.13-3.53.44-4.97,1.7-.63.58-1.24,1.43-1.84,2.54-.63,1.11-1.03,1.88-1.2,2.32l-.15.62c-.17-.01-.47-.01-.89,0-.42,0-.71,0-.89,0l-.51,1.43c-.44,1.36-.68,2.34-.72,2.93ZM126.86,220.63c.08-2.29.13-3.47.13-3.54.05-.8.17-1.41.33-1.86.38-.95,1.01-1.83,1.9-2.64.89-.81,1.75-1.19,2.58-1.13.8.05,1.33.33,1.61.84.15.32.29.89.41,1.7.36,3.96.53,6.05.52,6.3v1.46s-.59.27-.59.27c-.36.15-1.15.27-2.37.36-1.22.09-2.3.13-3.24.1l-1.35-.04.07-1.82ZM115.27,221.11c.04-.28.06-.52.07-.72.12-1.24.3-2.12.54-2.63.66-1.49,1.19-2.41,1.59-2.76.26-.19.59-.27,1.01-.24.38.03.71.12.97.27.64.36,1.05,1.01,1.23,1.96.08.35.18,1.28.31,2.79.13,1.5.18,2.41.16,2.72v.1s-2.83.12-2.83.12c-1.01.04-1.72.04-2.14.01-.41-.03-.69-.12-.81-.29-.13-.17-.18-.44-.15-.82,0-.07.03-.24.06-.52Z"/>
      </g>
    </g>
  </g>
</svg>