<?xml version="1.0" encoding="UTF-8"?>
<svg id="Layer_2" data-name="Layer 2" xmlns="http://www.w3.org/2000/svg" xmlns:xlink="http://www.w3.org/1999/xlink" viewBox="0 0 983.4 686.39">
  <defs>
    <style>
      .cls-1, .cls-2, .cls-3, .cls-4, .cls-5, .cls-6, .cls-7, .cls-8, .cls-9, .cls-10, .cls-11, .cls-12, .cls-13, .cls-14, .cls-15, .cls-16, .cls-17, .cls-18, .cls-19, .cls-20, .cls-21, .cls-22, .cls-23, .cls-24, .cls-25, .cls-26, .cls-27 {
        stroke-width: 0px;
      }

      .cls-1, .cls-28 {
        fill: #9b2d2f;
      }

      .cls-29, .cls-25 {
        fill: #f2b18c;
      }

      .cls-30 {
        clip-path: url(#clippath);
      }

      .cls-2 {
        fill: #c26447;
      }

      .cls-3 {
        fill: #c86a48;
      }

      .cls-4 {
        fill: #4b4541;
      }

      .cls-5 {
        fill: url(#radial-gradient);
      }

      .cls-6 {
        fill: #8484b2;
      }

      .cls-7, .cls-31 {
        fill: #bdbddb;
      }

      .cls-8 {
        fill: #dcdcf9;
      }

      .cls-32 {
        clip-path: url(#clippath-1);
      }

      .cls-33 {
        clip-path: url(#clippath-3);
      }

      .cls-34 {
        clip-path: url(#clippath-2);
      }

      .cls-9 {
        fill: #f0b08b;
      }

      .cls-10 {
        fill: #f3762a;
      }

      .cls-11 {
        fill: #c76849;
      }

      .cls-12 {
        fill: url(#radial-gradient-2);
      }

      .cls-13 {
        fill: url(#radial-gradient-3);
      }

      .cls-14 {
        fill: #151512;
      }

      .cls-15 {
        fill: #f2b08c;
      }

      .cls-16 {
        fill: #f9e448;
      }

      .cls-35, .cls-18 {
        fill: #f1b08b;
      }

      .cls-17 {
        fill: #eba07b;
      }

      .cls-19 {
        fill: #d4744f;
      }

      .cls-20 {
        fill: #d37652;
      }

      .cls-21 {
        fill: #2a2520;
      }

      .cls-22 {
        fill: #2a2621;
      }

      .cls-23 {
        fill: #da5c59;
      }

      .cls-24 {
        fill: #fff;
      }

      .cls-26 {
        fill: #f1af8a;
      }

      .cls-27 {
        fill: #616187;
      }
    </style>
    <clipPath id="clippath">
      <path class="cls-7" d="M435.89,371.93s2.72-2.1,5.8-1.85c3.09.25,9.26,1.36,21.48,1.85,12.22.49,35.8-2.14,39.38-1.87s6.05,1.87,10.62,6.56,7.9,9.63,7.9,9.63c0,0,25.68,6.91,44.94,13.95,19.26,7.04,24.07,11.85,29.38,21.97,5.31,10.12,30.62,75.8,30.62,75.8l3.33-5.68,12.22-20.12s.12-6.3.74-9.75c.62-3.46,6.17-8.27,9.75-12.47,3.58-4.2,13.21-28.52,13.21-28.52,0,0,7.16-1.23,21.6,3.7,14.44,4.94,22.84,11.6,24.32,15.8l-1.73,5.19c-.12.37-11.85,26.91-11.85,26.91,0,0-.37,17.04-1.48,20.86-1.11,3.83-10.12,14.44-11.48,19.51s-17.65,52.1-19.14,55.31-11.98,24.44-22.96,35.18c-10.99,10.74-20,10.12-26.91,8.39-6.91-1.73-22.84-20.62-29.26-30.49-6.42-9.88-16.42-29.01-16.42-29.01,0,0,1.36,61.23,4.69,79.26s4.44,34.94-1.85,42.59c-6.3,7.65-33.7,4.57-41.85,6.3-8.15,1.73-8.89,3.83-22.35,4.81-13.46.99-44.57.99-69.38-1.11-24.81-2.1-54.81,2.22-61.11-9.75-6.3-11.98-5.56-22.84-4.07-32.72s2.72-36.67,2.72-48.39-2.1-40.99-2.1-40.99c0,0-10.86,31.23-19.63,42.59-8.77,11.36-11.48,22.59-29.51,29.75-18.02,7.16-36.91-19.26-40.49-28.39-3.58-9.14-5.93-20.25-5.31-32.84s1.11-33.46-.12-38.89c-1.23-5.43-4.81-17.78-2.35-22.47s4.94-8.89,4.94-8.89l.12-28.89s5.8-9.01,24.69-7.78c18.89,1.23,23.33,6.91,23.33,6.91,0,0,9.51-25.8,11.85-30.37s5.43-16.3,19.51-25.43c14.07-9.14,43.83-17.53,60.37-20.62l13.83-15.56Z"/>
    </clipPath>
    <clipPath id="clippath-1">
      <path class="cls-18" d="M443.59,348.53v23.94s.45,4.06-2.11,7c-2.56,2.94,29.58,56.63,29.58,56.63l1.18,1.83,28.38-53.75s-.23-.69-.23-5.42.13-21.34.13-21.34l-56.92-8.89Z"/>
    </clipPath>
    <clipPath id="clippath-2">
      <path class="cls-25" d="M415.02,306.22s2.19,44.87,56.62,60.02c19.52,5.43,41.57-6.47,53.5-22.06,11.72-15.32,13.58-40.36,13.06-50.02,0,0,4.34-36.17,4.34-45.91s8.05-50.02-27.01-58.48c-35.06-8.46-74.8-7.7-87.01,0-12.21,7.7-21.82,21.55-23.37,44.63-1.56,23.09,8.13,62.45,9.87,71.82Z"/>
    </clipPath>
    <radialGradient id="radial-gradient" cx="441.29" cy="296.86" fx="441.29" fy="296.86" r="26.29" gradientUnits="userSpaceOnUse">
      <stop offset="0" stop-color="#ef9271"/>
      <stop offset=".19" stop-color="rgba(238, 146, 113, .72)" stop-opacity=".72"/>
      <stop offset=".38" stop-color="rgba(238, 146, 113, .47)" stop-opacity=".47"/>
      <stop offset=".56" stop-color="rgba(238, 146, 113, .27)" stop-opacity=".27"/>
      <stop offset=".71" stop-color="rgba(238, 146, 113, .12)" stop-opacity=".12"/>
      <stop offset=".84" stop-color="rgba(238, 146, 113, .03)" stop-opacity=".03"/>
      <stop offset=".92" stop-color="#ee9271" stop-opacity="0"/>
    </radialGradient>
    <radialGradient id="radial-gradient-2" cx="521.26" cy="298.43" fx="521.26" fy="298.43" r="28.18" xlink:href="#radial-gradient"/>
    <clipPath id="clippath-3">
      <path class="cls-1" d="M465.13,324.78c5.83-6.5,16.88-10.1,25.21-6.77,12.7,5.08,10.16,14.79,9.26,16.43s-2.39,2.39-8.96,0-18.82,1.71-21.81,1.53-5.98-1.38-6.12-5.11c-.09-2.36.91-4.38,2.43-6.07Z"/>
    </clipPath>
    <radialGradient id="radial-gradient-3" cx="923.49" cy="900.47" fx="923.49" fy="900.47" r="26.29" gradientTransform="translate(-186.74 -364.13) scale(.73)" xlink:href="#radial-gradient"/>
  </defs>
  <g id="Layer_1-2" data-name="Layer 1">
    <g>
      <path class="cls-16" d="M904.69,330.33c.99,10.37,4.87,21.84,8.47,32.53,14.86,36.19,4.66,78.26-29.38,99.04-10.54,7.18-24.51,11.79-34.31,20.38-13.62,11.28-13.28,27.9-1.65,39.87,7.31,8.02,18.65,13.83,29.2,17.05,19.48,5.92,39.77,9.3,58.47,17.17,16.87,6.75,31.57,19.18,40.79,35.33,17.91,32.12.39,59.21-34.25,68.15-8.53,2.5-17.4,4.11-25.58,5.27-262.81,31.47-521.7,14.36-783.29-17-24.8-2.95-49.83-5.68-73.15-15.43C.14,608.72-15.93,552.7,16.3,498.37c15.32-26.36,35.64-48.01,56.45-68.16,27.23-26.18,59.67-49.7,75.47-85.05,15.14-33.38-5.97-60.71-25.72-85.3-27.31-36.31-39.98-88.24-18.3-130.08,34.22-68.89,113.64-95.72,183.96-111.65,211.71-48.36,463.14-1.44,618.02,158.14,12.53,14.59,22.83,30.8,27.16,47.76,13.01,50.8-33.15,62.5-28.66,106.19v.11Z"/>
      <g>
        <g>
          <g>
            <polygon class="cls-6" points="279.23 387.37 234.87 310.36 284.76 282.35 346.97 386.34 295.22 415.5 279.23 387.37"/>
            <ellipse class="cls-8" cx="292.12" cy="349.2" rx="20.71" ry="18.85" transform="translate(-163.14 345.95) rotate(-49.68)"/>
            <path class="cls-6" d="M284.29,355.57c-.09.02-.18-.08-.29-.3-.16-.34-.32-.95-.5-1.83l-.15-.94c.1-.05.26-.14.49-.27s.39-.22.49-.27l-.11-.38c-.04-.29-.06-.84-.05-1.65,0-.79.07-1.45.24-1.96.41-1.14,1.15-1.95,2.22-2.46.26-.12.46-.2.61-.25.78-.24,1.6-.31,2.44-.2l.11-.63c.19-1.4.72-2.61,1.59-3.65.43-.54.94-.95,1.53-1.22.38-.18.8-.3,1.27-.38.88-.12,1.68-.05,2.39.22.83.33,1.51.85,2.03,1.55.14.2.25.33.33.39.08.06.13.07.16.03.25-.24.49-.39.73-.45.11-.03.2,0,.27.07.07.07.24.32.5.73.09.15.23.37.42.67.19.3.32.49.38.58l.25.46c-.09.07-.21.19-.38.36-.16.17-.29.29-.38.36l.77,1.56.36.77c.23.5.35.83.35,1.02,0,.18-.09.47-.26.87-.38.88-.81,1.53-1.27,1.94-.67.63-2.03,1.5-4.08,2.6-1.21.66-1.95,1.1-2.22,1.29-1.59,1.04-3.06,1.87-4.41,2.5-.75.35-1.52.41-2.31.18-.82-.25-1.47-.68-1.95-1.3l-.41-.5-.51.24c-.32.15-.54.23-.68.25ZM287.49,350.88c.02.35.19.89.5,1.61.06.12.12.26.18.42.06.16.11.26.12.3.1.22.21.35.34.41.12.05.3.02.54-.09.24-.11.63-.33,1.18-.66l1.52-.93-.03-.06c-.08-.18-.39-.66-.92-1.46-.53-.79-.87-1.27-1.02-1.44-.39-.47-.81-.71-1.28-.71-.2,0-.4.04-.62.15-.24.11-.4.26-.48.44-.12.32-.13.99-.04,2.01ZM293.04,346c.04.29.17.67.38,1.13.02.04.36.7,1.01,1.99l.52,1.03.76-.39c.53-.27,1.11-.62,1.76-1.04.65-.42,1.05-.73,1.2-.92l.24-.33-.45-.81c-.06-.14-.8-1.24-2.21-3.32-.31-.41-.56-.68-.74-.81-.31-.19-.69-.18-1.15.03-.48.22-.84.69-1.08,1.41-.24.72-.32,1.4-.24,2.04Z"/>
            <g>
              <path class="cls-24" d="M251.88,327.46s-.06-.06-.11-.17c-.06-.13-.23-.39-.49-.78-.2-.31-.31-.49-.35-.55-.03-.06-.04-.1-.02-.12.04-.05.15-.15.32-.3.27-.23.42-.36.46-.39.04-.03.08-.02.11.01.01,0,.21.3.6.88l.58.88s.14-.09.37-.28c.22-.19.34-.29.33-.31v-.02s-.11-.12-.27-.3c-.21-.21-.39-.41-.52-.62-.07-.11-.13-.22-.18-.33-.12-.33-.19-.63-.2-.89,0-.08,0-.13-.03-.17-.02-.03,0-.16.07-.4s.11-.4.16-.5c.11-.24.31-.49.6-.75.11-.1.21-.18.29-.24.1-.06.26-.13.48-.21.21-.06.5-.08.87-.04.37.04.67.11.91.21.24.11.5.28.77.51.27.23.48.46.63.68.05.08.09.14.1.17.16.34.24.62.24.85,0,.08-.04.28-.12.62-.07.33-.13.53-.16.59-.03.03-.05.04-.08.04-.08-.02-.26-.1-.55-.22-.29-.13-.44-.2-.46-.23,0-.01.02-.15.1-.4,0-.02.01-.05.02-.07.05-.21.07-.36.04-.43,0-.01,0-.02,0-.03-.04-.09-.08-.16-.12-.23-.19-.29-.44-.52-.75-.71-.22-.13-.51-.2-.9-.21h-.24s-.2.17-.2.17c-.24.18-.39.4-.45.66-.07.35-.01.66.18.95.13.2.35.43.66.7.1.08.2.19.28.32.31.46.15.96-.48,1.5-.56.47-.9.75-1.03.84-.18.12-.36.17-.54.14-.13-.02-.23-.06-.31-.12-.08-.06-.2-.19-.34-.37-.17-.23-.26-.34-.27-.34Z"/>
              <path class="cls-24" d="M248.25,322.13s-.03-.05-.06-.08c-.03-.04-.05-.07-.06-.08-.41-.62-.41-1.28,0-1.99.19-.31.37-.57.56-.76.19-.2.47-.43.85-.69l.25-.17c.51-.34.94-.57,1.29-.69.39-.13.69-.2.89-.2.36-.02.77.17,1.22.55.13.11.27.28.43.52.13.2.23.38.28.53.12.37.13.73.05,1.07-.08.39-.22.71-.42.95-.2.25-.56.54-1.06.87-.5.33-1.02.6-1.57.79-.38.14-.68.22-.91.24s-.46,0-.7-.08c-.37-.11-.71-.37-1.04-.78ZM248.99,321.01c0,.07.05.18.14.32.17.24.35.4.53.46.1.03.2.04.32.01.12-.02.31-.08.58-.18.43-.16.85-.37,1.25-.63.17-.11.3-.2.38-.27.37-.29.57-.58.61-.87.01-.15.01-.27,0-.35-.02-.09-.08-.2-.17-.34-.11-.17-.24-.3-.39-.39-.11-.07-.21-.11-.28-.12-.07,0-.19.02-.35.07-.32.08-.76.31-1.31.67-.19.13-.35.25-.5.37-.25.2-.45.42-.6.66-.15.23-.22.43-.22.59Z"/>
              <path class="cls-24" d="M245.35,317.75s-.03-.05-.06-.08c-.03-.04-.05-.07-.06-.08-.41-.62-.41-1.28,0-1.99.19-.31.37-.57.56-.76.19-.2.47-.43.85-.69l.25-.17c.51-.34.94-.57,1.29-.69.39-.13.69-.2.89-.2.36-.02.77.17,1.22.55.13.11.27.28.43.52.13.2.23.38.28.53.12.37.13.73.05,1.07-.08.39-.22.71-.42.95-.2.25-.56.54-1.06.87-.5.33-1.02.6-1.57.79-.38.14-.68.22-.91.24-.23.02-.46,0-.7-.08-.37-.11-.71-.37-1.04-.78ZM246.08,316.64c0,.07.05.18.14.32.17.24.35.4.53.46.1.03.2.04.32.01.12-.02.31-.08.58-.18.43-.15.85-.37,1.25-.63.17-.11.3-.2.38-.27.37-.29.57-.58.61-.87.01-.15.01-.27,0-.35-.02-.09-.08-.2-.17-.34-.11-.17-.24-.3-.39-.39-.11-.07-.21-.11-.28-.12-.07,0-.19.02-.35.07-.32.08-.76.31-1.31.67-.19.13-.35.25-.5.37-.25.2-.45.42-.6.66-.15.23-.22.43-.22.59Z"/>
            </g>
          </g>
          <g>
            <polygon class="cls-6" points="277.74 364.95 271.93 276.27 329.06 273.16 338.98 393.94 279.67 397.26 277.74 364.95"/>
            <ellipse class="cls-8" cx="306.16" cy="336.39" rx="20.71" ry="18.85" transform="translate(-108.69 149.86) rotate(-23.48)"/>
            <path class="cls-6" d="M296.32,338.66c-.09-.02-.13-.16-.12-.4,0-.37.13-.99.36-1.86l.28-.91c.11,0,.3,0,.56-.02s.45-.02.56-.02l.07-.39c.09-.28.32-.78.69-1.5.34-.72.7-1.27,1.08-1.65.87-.84,1.9-1.24,3.08-1.22.28,0,.5.02.66.05.81.13,1.57.42,2.28.9l.37-.52c.79-1.17,1.8-2.02,3.04-2.57.62-.29,1.26-.44,1.91-.42.42,0,.85.08,1.31.22.85.28,1.53.7,2.05,1.25.6.67.98,1.43,1.14,2.29.04.24.08.41.12.49.04.09.09.12.13.1.33-.1.62-.13.86-.08.11.02.18.09.21.18.03.1.07.39.13.87.02.18.05.44.08.79.04.35.07.58.08.69l.02.53c-.11.02-.27.07-.5.15-.22.08-.38.14-.5.16v1.74s-.02.85-.02.85c-.01.55-.06.9-.14,1.06-.08.16-.29.38-.62.66-.73.62-1.4,1.01-1.99,1.18-.88.27-2.48.45-4.81.53-1.38.06-2.24.12-2.56.18-1.89.23-3.57.33-5.06.3-.83-.02-1.55-.3-2.15-.86-.62-.58-1.02-1.26-1.18-2.03l-.15-.63h-.56c-.35-.02-.59-.04-.72-.09ZM301.26,335.86c-.14.33-.22.88-.26,1.67,0,.13-.01.28-.02.46-.01.18-.02.28-.02.33,0,.24.04.41.12.51.09.1.26.15.52.16.26,0,.71-.02,1.35-.07l1.78-.16v-.07c0-.2-.05-.77-.18-1.71-.12-.94-.22-1.53-.28-1.75-.14-.59-.42-.99-.83-1.2-.17-.09-.38-.14-.62-.14-.26,0-.47.06-.63.18-.25.24-.55.83-.92,1.79ZM308.39,333.93c-.09.28-.14.68-.15,1.18,0,.04,0,.79.02,2.23v1.15s.86-.02.86-.02c.59,0,1.27-.06,2.04-.16.77-.09,1.26-.19,1.48-.3l.36-.19-.05-.92c0-.15-.17-1.47-.52-3.95-.1-.51-.2-.86-.31-1.06-.19-.31-.54-.47-1.04-.48-.53-.01-1.06.25-1.59.79-.54.54-.91,1.11-1.12,1.72Z"/>
            <g>
              <path class="cls-24" d="M279.64,299.13s-.03-.08-.03-.2c0-.14-.03-.45-.1-.92-.04-.36-.06-.58-.07-.65,0-.07,0-.11.04-.12.06-.03.2-.07.42-.13.34-.09.54-.14.58-.15.05,0,.08.01.09.06,0,0,.06.36.15,1.05l.14,1.04s.17-.02.45-.09c.29-.07.43-.12.44-.13v-.02s-.04-.15-.1-.38c-.1-.28-.16-.54-.2-.79-.02-.13-.02-.26-.01-.38.03-.35.1-.65.21-.89.04-.07.06-.12.05-.16,0-.03.07-.14.24-.33s.28-.31.36-.38c.21-.17.5-.3.87-.41.14-.04.27-.07.37-.08.12-.01.29,0,.52.03.22.03.48.15.79.35.31.2.55.39.72.59.17.21.32.47.46.8.14.33.23.62.26.89.01.09.02.16.01.2,0,.37-.06.66-.16.87-.04.07-.16.24-.38.5-.21.27-.35.42-.41.46-.04.01-.07.01-.08,0-.06-.05-.2-.2-.4-.44-.2-.24-.31-.38-.31-.41,0-.02.09-.12.27-.32.01-.02.03-.04.05-.05.14-.17.22-.29.22-.37,0,0,0-.02,0-.02,0-.09,0-.18,0-.26-.04-.34-.16-.66-.36-.97-.14-.21-.37-.4-.71-.58l-.21-.1-.25.06c-.3.05-.53.19-.69.4-.22.28-.3.59-.26.93.03.24.13.55.28.92.05.12.09.26.11.41.07.55-.29.93-1.09,1.13-.71.18-1.14.28-1.29.3-.22.03-.4-.01-.55-.12-.1-.07-.18-.16-.23-.25-.05-.09-.09-.25-.14-.48-.05-.28-.08-.42-.09-.42Z"/>
              <path class="cls-24" d="M278.74,292.75s0-.06-.02-.1c0-.05-.02-.08-.02-.1-.1-.74.2-1.33.88-1.79.3-.2.59-.34.84-.44.25-.1.61-.18,1.07-.24l.3-.04c.61-.08,1.1-.1,1.46-.05.41.06.71.13.89.22.33.15.62.49.85,1.03.07.16.12.37.16.65.03.24.04.44.02.6-.06.39-.2.72-.43.99-.24.32-.51.54-.8.67-.29.13-.74.24-1.34.32-.6.08-1.18.08-1.76.02-.4-.04-.71-.1-.92-.18s-.41-.2-.59-.38c-.28-.26-.47-.65-.59-1.16ZM279.89,292.07c-.03.07-.04.18-.01.34.05.29.14.51.27.65.07.07.16.12.28.15.11.03.32.06.6.1.46.05.92.05,1.4-.02.2-.03.36-.05.46-.07.46-.1.77-.27.94-.51.08-.13.13-.23.15-.32.02-.09.02-.21,0-.38-.03-.2-.08-.37-.17-.52-.07-.12-.14-.19-.2-.23-.06-.04-.18-.07-.35-.09-.32-.07-.81-.06-1.47.03-.22.03-.43.07-.61.11-.31.07-.59.18-.83.32-.24.14-.39.29-.46.43Z"/>
              <path class="cls-24" d="M278.07,287.53s0-.06-.02-.1c0-.05-.02-.08-.02-.1-.1-.73.2-1.33.88-1.79.3-.2.58-.34.84-.44.25-.1.61-.18,1.07-.24l.3-.04c.61-.08,1.1-.09,1.46-.05.41.06.71.13.89.21.33.15.62.49.85,1.03.07.16.12.37.16.65.03.24.04.44.02.6-.06.39-.2.72-.43.99-.24.31-.51.54-.8.67-.29.13-.74.24-1.34.32-.6.08-1.18.08-1.76.02-.4-.04-.71-.1-.92-.18-.21-.08-.41-.2-.59-.38-.28-.26-.47-.65-.59-1.16ZM279.22,286.85c-.03.07-.04.18-.01.34.05.29.14.51.27.65.07.07.17.12.28.15.11.03.32.06.6.1.45.05.92.05,1.4-.02.2-.03.36-.05.46-.07.46-.1.77-.27.94-.51.08-.13.13-.23.15-.32.02-.09.02-.21,0-.38-.03-.2-.08-.37-.17-.52-.07-.12-.14-.19-.2-.23-.06-.03-.18-.06-.35-.09-.32-.07-.81-.06-1.47.03-.22.03-.43.07-.61.11-.31.07-.59.18-.83.32-.24.14-.39.29-.46.43Z"/>
            </g>
          </g>
          <g>
            <polygon class="cls-6" points="283.21 361.85 313.21 278.2 366.86 298.12 327.82 412.84 272.1 392.25 283.21 361.85"/>
            <ellipse class="cls-8" cx="320.65" cy="346.98" rx="20.71" ry="18.85"/>
            <path class="cls-6" d="M310.72,345.14c-.07-.06-.06-.19.04-.41.15-.34.51-.86,1.08-1.57l.62-.73c.1.05.27.11.52.2s.42.16.52.2l.22-.33c.2-.22.61-.59,1.23-1.1.6-.52,1.15-.88,1.65-1.09,1.13-.42,2.23-.39,3.31.11.26.12.45.22.58.3.69.44,1.27,1.01,1.73,1.73l.55-.33c1.19-.76,2.46-1.14,3.81-1.15.68-.02,1.33.1,1.92.37.38.17.75.41,1.11.73.67.59,1.13,1.25,1.38,1.97.28.85.33,1.7.13,2.55-.06.24-.09.41-.09.5,0,.1.03.15.08.14.34.04.62.13.82.27.09.07.13.15.12.25-.01.1-.09.39-.23.85-.05.17-.13.42-.24.76-.11.34-.17.56-.2.67l-.19.49c-.11-.03-.28-.04-.52-.06-.24-.01-.41-.03-.52-.06l-.69,1.6-.36.78c-.23.5-.41.81-.55.92-.14.12-.41.24-.83.36-.92.28-1.69.37-2.3.29-.91-.1-2.45-.58-4.62-1.43-1.29-.49-2.1-.78-2.42-.86-1.82-.54-3.41-1.13-4.76-1.75-.76-.35-1.3-.89-1.63-1.65-.34-.78-.43-1.56-.27-2.33l.11-.64-.51-.23c-.32-.15-.53-.27-.63-.36ZM316.37,344.54c-.26.24-.56.72-.91,1.43-.05.12-.12.26-.21.41-.08.16-.13.25-.15.29-.1.22-.13.39-.09.52.04.13.18.24.42.35.24.11.66.27,1.27.47l1.69.56.03-.06c.08-.18.25-.73.52-1.64.26-.91.41-1.49.44-1.71.11-.6.01-1.08-.29-1.43-.12-.15-.29-.28-.51-.38-.24-.11-.46-.14-.65-.08-.32.12-.84.54-1.56,1.27ZM323.68,345.61c-.2.22-.4.56-.61,1.02-.02.04-.31.73-.87,2.06l-.45,1.06.79.33c.55.23,1.19.45,1.93.67.74.22,1.24.33,1.48.32l.41-.03.32-.86c.06-.14.43-1.42,1.1-3.83.11-.5.16-.87.14-1.09-.05-.36-.31-.65-.76-.86-.48-.22-1.07-.19-1.78.09-.71.28-1.28.66-1.71,1.13Z"/>
            <g>
              <path class="cls-24" d="M311.18,302.24s0-.08.06-.19c.05-.13.15-.42.28-.88.11-.35.17-.56.2-.62.02-.06.05-.09.08-.09.07,0,.21.01.44.05.35.05.55.09.59.1.04.01.06.04.06.09,0,0-.09.35-.28,1.03l-.29,1.01s.16.05.45.1c.29.05.44.07.45.05v-.02s.03-.15.07-.38c.02-.29.06-.56.13-.8.04-.13.08-.24.14-.35.17-.31.35-.55.55-.73.06-.05.1-.09.11-.13,0-.03.12-.1.35-.2s.38-.17.48-.2c.26-.07.58-.08.96-.03.15.02.27.04.37.07.11.03.27.11.47.23.19.12.38.33.59.63.21.3.35.58.42.83.07.26.11.56.11.92,0,.36-.04.66-.11.92-.03.09-.05.15-.07.19-.15.34-.32.58-.49.74-.06.05-.24.15-.55.31-.3.16-.49.25-.56.26-.04,0-.07-.01-.08-.03-.03-.08-.1-.26-.19-.57-.09-.3-.13-.47-.12-.5,0-.01.13-.08.37-.19.02-.01.04-.02.07-.03.2-.1.32-.18.35-.25,0,0,.02-.01.02-.02.04-.09.07-.17.09-.24.09-.33.11-.67.05-1.03-.04-.25-.18-.52-.42-.82l-.16-.18-.25-.05c-.3-.07-.56-.04-.79.09-.31.17-.51.42-.61.75-.07.23-.1.55-.11.96,0,.13-.02.27-.06.42-.15.53-.64.73-1.45.6-.72-.12-1.16-.2-1.31-.24-.21-.06-.36-.17-.45-.33-.07-.11-.1-.21-.11-.32,0-.1.02-.27.07-.5.06-.27.09-.42.09-.43Z"/>
              <path class="cls-24" d="M312.9,296.02s.01-.06.02-.1c0-.05.02-.08.02-.1.21-.71.71-1.14,1.52-1.29.36-.06.67-.08.95-.07.27.01.63.08,1.08.2l.29.08c.59.17,1.04.35,1.36.54.35.22.6.4.73.55.25.27.37.7.37,1.29,0,.17-.04.39-.12.66-.07.23-.14.42-.22.56-.21.33-.47.58-.79.74-.35.19-.68.29-1,.3-.32,0-.77-.08-1.35-.24-.58-.17-1.12-.4-1.62-.69-.35-.2-.61-.38-.77-.53s-.3-.35-.39-.58c-.15-.35-.18-.79-.08-1.3ZM314.23,295.86c-.05.05-.11.15-.15.31-.07.29-.08.52,0,.7.04.09.1.18.19.25.09.08.26.19.51.33.4.23.83.41,1.29.54.19.06.35.1.45.12.46.09.81.06,1.06-.1.12-.09.21-.16.26-.23.05-.07.1-.19.15-.35.06-.19.07-.38.05-.55-.02-.14-.05-.23-.09-.29-.04-.06-.14-.13-.28-.22-.27-.19-.72-.38-1.36-.56-.22-.06-.42-.11-.61-.14-.32-.06-.61-.07-.89-.03-.28.04-.47.11-.59.21Z"/>
              <path class="cls-24" d="M314.36,290.98s.01-.06.02-.1c0-.05.02-.08.02-.1.21-.71.71-1.14,1.52-1.29.36-.06.67-.08.95-.07.27.01.63.08,1.07.2l.29.08c.59.17,1.04.35,1.36.54.35.22.6.4.73.55.25.27.37.7.37,1.29,0,.17-.04.39-.12.66-.07.23-.14.42-.22.56-.21.33-.47.58-.79.74-.35.19-.68.29-1,.3-.32,0-.77-.08-1.35-.24-.58-.17-1.12-.4-1.62-.69-.35-.2-.61-.38-.77-.53-.17-.16-.3-.35-.39-.58-.15-.35-.18-.79-.08-1.3ZM315.68,290.81c-.05.05-.11.15-.15.31-.07.29-.08.52,0,.7.04.09.1.18.2.25.09.08.26.19.51.33.4.23.83.41,1.29.54.19.06.35.1.45.12.46.09.81.06,1.06-.1.12-.09.21-.16.26-.23.05-.07.1-.19.15-.35.06-.19.07-.38.05-.55-.02-.14-.05-.23-.09-.29-.04-.06-.14-.13-.28-.22-.27-.19-.72-.38-1.36-.56-.22-.06-.42-.11-.61-.14-.32-.06-.61-.07-.89-.03-.28.04-.47.11-.59.21Z"/>
            </g>
          </g>
          <polygon class="cls-27" points="312.84 279.24 311.03 280.46 289.8 344.43 312.84 279.24"/>
          <polygon class="cls-27" points="272.77 289.08 271.22 289.95 276.51 346.26 272.77 289.08"/>
        </g>
        <g>
          <g>
            <path class="cls-31" d="M435.89,371.93s2.72-2.1,5.8-1.85c3.09.25,9.26,1.36,21.48,1.85,12.22.49,35.8-2.14,39.38-1.87s6.05,1.87,10.62,6.56,7.9,9.63,7.9,9.63c0,0,25.68,6.91,44.94,13.95,19.26,7.04,24.07,11.85,29.38,21.97,5.31,10.12,30.62,75.8,30.62,75.8l3.33-5.68,12.22-20.12s.12-6.3.74-9.75c.62-3.46,6.17-8.27,9.75-12.47,3.58-4.2,13.21-28.52,13.21-28.52,0,0,7.16-1.23,21.6,3.7,14.44,4.94,22.84,11.6,24.32,15.8l-1.73,5.19c-.12.37-11.85,26.91-11.85,26.91,0,0-.37,17.04-1.48,20.86-1.11,3.83-10.12,14.44-11.48,19.51s-17.65,52.1-19.14,55.31-11.98,24.44-22.96,35.18c-10.99,10.74-20,10.12-26.91,8.39-6.91-1.73-22.84-20.62-29.26-30.49-6.42-9.88-16.42-29.01-16.42-29.01,0,0,1.36,61.23,4.69,79.26s4.44,34.94-1.85,42.59c-6.3,7.65-33.7,4.57-41.85,6.3-8.15,1.73-8.89,3.83-22.35,4.81-13.46.99-44.57.99-69.38-1.11-24.81-2.1-54.81,2.22-61.11-9.75-6.3-11.98-5.56-22.84-4.07-32.72s2.72-36.67,2.72-48.39-2.1-40.99-2.1-40.99c0,0-10.86,31.23-19.63,42.59-8.77,11.36-11.48,22.59-29.51,29.75-18.02,7.16-36.91-19.26-40.49-28.39-3.58-9.14-5.93-20.25-5.31-32.84s1.11-33.46-.12-38.89c-1.23-5.43-4.81-17.78-2.35-22.47s4.94-8.89,4.94-8.89l.12-28.89s5.8-9.01,24.69-7.78c18.89,1.23,23.33,6.91,23.33,6.91,0,0,9.51-25.8,11.85-30.37s5.43-16.3,19.51-25.43c14.07-9.14,43.83-17.53,60.37-20.62l13.83-15.56Z"/>
            <g class="cls-30">
              <path class="cls-6" d="M330.33,463.9s-5.82,8.09-25.75,6.22c-19.93-1.87-28.65-9.55-28.65-9.55l10.71-17.03,28.53.78,9.76,5.24,5.4,14.33"/>
              <path class="cls-6" d="M665.26,421.43s13.46,12.15,31.31,16.92c17.86,4.78,23.05,1.04,23.05,1.04l-16.4-28.86-40.07-.42,2.12,11.31"/>
            </g>
          </g>
          <path class="cls-6" d="M307.17,500.7c-7.16,0-14.31-1.37-20.91-4.13-.5-.21-.74-.79-.53-1.29.21-.5.79-.74,1.29-.53,13.53,5.65,29.5,5.26,42.73-1.05.49-.23,1.08-.03,1.31.47.23.49.03,1.08-.47,1.31-7.28,3.47-15.36,5.21-23.43,5.21Z"/>
          <path class="cls-6" d="M348.36,576.79c-.1,0-.2-.01-.3-.05-.52-.16-.81-.72-.64-1.23,1.47-4.67,1.8-10.13.99-16.21-.73-5.49-2.28-10.94-3.78-16.21-1.59-5.59-3.24-11.36-5.29-16.88l-.13-.34c-.41-1.1-.84-2.24-1.1-3.44-.41-1.9-.38-3.81-.36-5.65l.21-14.05c.01-.89.03-1.81-.26-2.58-.26-.69-.79-1.33-1.31-1.95l-4-4.79c-.35-.42-.29-1.04.12-1.39.42-.35,1.04-.29,1.39.12l4,4.79c.59.71,1.27,1.52,1.64,2.52.42,1.12.4,2.28.39,3.3l-.21,14.05c-.03,1.74-.05,3.53.31,5.21.23,1.06.61,2.08,1.02,3.17l.13.34c2.08,5.59,3.74,11.4,5.34,17.03,1.52,5.34,3.09,10.85,3.84,16.49.85,6.37.49,12.11-1.07,17.06-.13.42-.52.69-.94.69Z"/>
          <path class="cls-6" d="M353.89,536.85c-.36,0-.72-.2-.89-.55-1.21-2.48-2.46-5.04-4.09-7.27-1.79-2.45-3.82-4.16-6.04-5.1-1.04-.44-2.19-.74-3.3-1.02-.53-.13-.85-.67-.71-1.2.13-.53.67-.85,1.2-.71,1.18.3,2.41.61,3.59,1.11,2.54,1.08,4.85,3.01,6.86,5.75,1.74,2.37,3.03,5.01,4.27,7.57.24.49.04,1.08-.45,1.32-.14.07-.29.1-.43.1Z"/>
          <path class="cls-6" d="M374.93,554.88c-.51,0-.94-.39-.98-.9l-3.03-36.31c-1.27-15.14-2.57-30.8-4.85-46.08-.08-.54.29-1.04.83-1.12.54-.08,1.04.29,1.12.83,2.29,15.34,3.6,31.03,4.87,46.2l3.03,36.31c.05.54-.36,1.02-.9,1.06-.03,0-.06,0-.08,0Z"/>
          <path class="cls-6" d="M446.45,633.47c-4.02-3.42-7.86-7.04-11.49-10.86-3.71-3.9-7.14-8.03-10.55-12.19-7.19-8.75-14.38-17.5-21.57-26.25-4.04-4.92-8.09-9.84-12.13-14.76-.81-.98-2.19.42-1.39,1.39,7.16,8.71,14.31,17.41,21.47,26.12,3.59,4.37,7.19,8.75,10.78,13.12s6.92,8.49,10.65,12.51c4.03,4.35,8.33,8.45,12.84,12.3.96.82,2.36-.57,1.39-1.39h0Z"/>
          <path class="cls-6" d="M455.97,679.41c-.34,0-.68-.18-.86-.5-1.3-2.33-3.34-4.22-5.31-6.05l-6.76-6.28c-.4-.37-.42-.99-.05-1.39.37-.4.99-.42,1.39-.05l6.76,6.28c1.98,1.84,4.23,3.93,5.69,6.53.27.47.1,1.07-.38,1.34-.15.09-.32.13-.48.13Z"/>
          <path class="cls-6" d="M444.49,679.06c-.16,0-.31-.04-.46-.11-5.96-3.16-11.28-7.48-16.42-11.65-5.53-4.49-11.24-9.13-17.69-12.23-.49-.24-.7-.83-.46-1.31.24-.49.83-.69,1.31-.46,6.65,3.21,12.46,7.92,18.07,12.48,5.07,4.11,10.31,8.37,16.1,11.44.48.25.66.85.41,1.33-.18.33-.52.52-.87.52Z"/>
          <path class="cls-6" d="M492.93,639.09c-.26,0-.52-.1-.71-.31-.37-.39-.36-1.02.03-1.39l24.72-23.52c11.34-10.78,23.06-21.94,32.23-34.91.31-.44.93-.55,1.37-.24.44.31.55.93.24,1.37-9.28,13.13-21.08,24.35-32.48,35.2l-24.72,23.52c-.19.18-.43.27-.68.27Z"/>
          <path class="cls-6" d="M513.12,643.58c-.34,0-.69-.13-.95-.4-.5-.52-.49-1.35.04-1.86,5.28-5.08,11.34-9.19,18.01-12.2.66-.3,1.44,0,1.74.66s0,1.44-.66,1.74c-6.4,2.89-12.21,6.82-17.27,11.7-.25.25-.58.37-.91.37Z"/>
          <path class="cls-6" d="M524.65,684.43c-.43,0-.86-.21-1.11-.6-.39-.61-.21-1.42.4-1.81,6.17-3.96,11.59-9.27,15.67-15.36.4-.6,1.22-.76,1.82-.36.6.4.76,1.22.36,1.82-4.28,6.38-9.96,11.96-16.43,16.11-.22.14-.47.21-.71.21Z"/>
          <path class="cls-6" d="M544.4,671.65c-.41,0-.81-.19-1.06-.54-.43-.59-.29-1.41.29-1.83,1.8-1.3,3.54-2.73,5.18-4.24,2.22-2.04,5.31-5.21,6.58-9.14.22-.69.96-1.06,1.65-.85.69.22,1.07.96.85,1.65-1.46,4.52-4.87,8.02-7.3,10.26-1.71,1.58-3.54,3.07-5.42,4.43-.23.17-.5.25-.77.25Z"/>
          <path class="cls-6" d="M503.36,530.34c-.65,0-1.22-.48-1.3-1.15-1.79-13.87-2.61-28-2.43-41.98,0-.72.6-1.3,1.31-1.3h.02c.73,0,1.31.6,1.3,1.33-.18,13.86.63,27.86,2.41,41.62.09.72-.42,1.38-1.13,1.47-.06,0-.11.01-.17.01Z"/>
          <path class="cls-6" d="M529.57,544.14c-.18,0-.35-.04-.52-.11-8.28-3.57-16.55-7.45-24.58-11.56-.65-.33-.9-1.12-.57-1.77.33-.65,1.12-.9,1.77-.57,7.77,3.97,15.76,7.74,23.77,11.2,2.45-1.58,5-2.48,7.41-3.27,5.71-1.87,11.31-4.22,16.64-7,.64-.33,1.44-.08,1.77.56.33.64.08,1.44-.56,1.77-5.46,2.84-11.19,5.25-17.03,7.16-2.53.83-4.99,1.71-7.34,3.34-.22.16-.49.24-.75.24Z"/>
          <path class="cls-6" d="M556.86,530.59c-.72,0-1.3-.57-1.31-1.29l-.72-44.5c-.01-.73.57-1.32,1.29-1.33.72,0,1.32.57,1.33,1.29l.72,44.5c.01.73-.57,1.32-1.29,1.33h-.02Z"/>
          <path class="cls-6" d="M500.37,485.38c-.63,0-1.19-.46-1.29-1.1-.12-.72.37-1.39,1.09-1.51,18.54-2.99,37.44-3.87,56.18-2.62.72.05,1.27.67,1.22,1.4s-.68,1.29-1.4,1.22c-18.54-1.23-37.24-.36-55.58,2.59-.07.01-.14.02-.21.02Z"/>
          <path class="cls-6" d="M570.06,554.85s-.03,0-.05,0c-.72-.03-1.29-.64-1.26-1.36l3.56-91.24c.03-.72.64-1.32,1.36-1.26.72.03,1.29.64,1.26,1.36l-3.56,91.24c-.03.71-.61,1.26-1.31,1.26Z"/>
          <path class="cls-6" d="M603.93,560.66c-.68,0-1.25-.52-1.31-1.21-.58-7.48,1.63-14.82,4.11-21.63,4.64-12.77,10.56-25,15.2-34.23.33-.65,1.12-.91,1.76-.58.65.33.91,1.12.58,1.76-4.61,9.16-10.49,21.3-15.08,33.94-2.37,6.54-4.5,13.55-3.96,20.53.06.72-.49,1.35-1.21,1.41-.03,0-.07,0-.1,0Z"/>
          <path class="cls-6" d="M595.13,537.46c-.25,0-.49-.07-.72-.21-.61-.4-.78-1.21-.38-1.82,2.77-4.25,5.43-7.35,8.35-9.77,3.69-3.04,7.81-4.91,11.92-5.39,0,0,0,0,0,0,.18-.38.55-.67,1-.74.72-.1,1.38.39,1.49,1.11.07.48-.05.95-.35,1.33-.51.66-1.37.85-1.84.91-3.6.42-7.25,2.08-10.55,4.8-2.72,2.24-5.2,5.16-7.83,9.18-.25.39-.67.6-1.1.6ZM614.2,521.02h0s0,0,0,0Z"/>
          <path class="cls-6" d="M695.59,470.61c-.08,0-.15,0-.23-.02-14.88-2.65-29.2-9.74-40.32-19.97-.53-.49-.57-1.32-.08-1.86.49-.53,1.32-.57,1.86-.08,10.76,9.89,24.61,16.75,39.01,19.31.71.13,1.19.81,1.06,1.52-.11.64-.67,1.08-1.29,1.08Z"/>
          <circle class="cls-6" cx="322.78" cy="483.34" r="3.73"/>
          <circle class="cls-6" cx="696.9" cy="455.32" r="3.73"/>
          <circle class="cls-6" cx="477.73" cy="451.59" r="3.73"/>
          <circle class="cls-6" cx="477.73" cy="494.32" r="3.73"/>
          <circle class="cls-6" cx="479.61" cy="560.66" r="3.73"/>
          <circle class="cls-6" cx="481.84" cy="613.34" r="3.73"/>
          <circle class="cls-6" cx="483.34" cy="656.93" r="3.73"/>
          <path class="cls-6" d="M491.22,412.63s1.97-1.71,3.26-1.76c1.28-.05,2.08.37,3.52,1.76s16.06,17.5,16.06,17.5c0,0,.53.91.85,0,.32-.91,4.11-29.35,4.11-29.35l.96-14.14s-.02-.94.82-.79,1.32.79,1.32,2.07-2.72,28.66-2.72,28.66c0,0-2.45,16.7-3.95,17.5s-12.7-13.34-12.7-13.34l-7.36-7.42s-.96-.75-1.81.27-2.67,2.88-3.31,2.29-.53-1.76.96-3.26Z"/>
          <path class="cls-6" d="M451.44,414.39l2.59,1.79s1.03.25,1.17-.89-3.56-3.35-4.14-3.55-2.07-.67-3.66,1.11-11.88,16.21-11.88,16.21c0,0-.87,1.06-1.49-.82s-10.82-38.33-10.82-38.33c0,0-.38-1.88-1.64-1.78s-.38,2.74-.38,2.74l10.73,39.63s.91,3.46,2.45,2.79,9.76-12.41,9.76-12.41c0,0,5.05-7.02,5.58-7.07s.82-.04,1.72.58Z"/>
          <g>
            <path class="cls-35" d="M443.59,348.53v23.94s.45,4.06-2.11,7c-2.56,2.94,29.58,56.63,29.58,56.63l1.18,1.83,28.38-53.75s-.23-.69-.23-5.42.13-21.34.13-21.34l-56.92-8.89Z"/>
            <g class="cls-32">
              <path class="cls-20" d="M439.55,346.43s2.04,6.9,16.49,19.17c14.44,12.27,25.82,19.04,38.85,19.81s27.22-7.8,27.22-7.8l-11.63-31.31-53.17-2.17-17.77,2.3Z"/>
            </g>
          </g>
          <path class="cls-17" d="M538.96,259.46s10.26-1.97,13.08,3.67c2.82,5.64,4.62,22.83-3.59,30.52-8.21,7.7-14.36,8.46-14.36,8.46l4.87-42.66Z"/>
          <g>
            <path class="cls-29" d="M415.02,306.22s2.19,44.87,56.62,60.02c19.52,5.43,41.57-6.47,53.5-22.06,11.72-15.32,13.58-40.36,13.06-50.02,0,0,4.34-36.17,4.34-45.91s8.05-50.02-27.01-58.48c-35.06-8.46-74.8-7.7-87.01,0-12.21,7.7-21.82,21.55-23.37,44.63-1.56,23.09,8.13,62.45,9.87,71.82Z"/>
            <g class="cls-34">
              <circle class="cls-5" cx="441.29" cy="296.86" r="26.29"/>
              <circle class="cls-12" cx="521.26" cy="298.43" r="28.18"/>
            </g>
          </g>
          <path class="cls-9" d="M416.1,273.13s-2.05-14.88-14.62-13.59c-12.57,1.28-10,21.03-7.95,26.42s10.77,23.09,24.62,18.21"/>
          <path class="cls-22" d="M541.15,267.3s11.79-19.04,13.26-28.79c1.48-9.75,0-13.59,0-13.59,0,0-.8-1.34,1.15-3.4s5.1-13.25-.43-20.74c0,0,.65-8.47-4.78-16.18-5.43-7.71-12.49-13.36-28.34-17.92-15.86-4.56-28.67-13.68-55.49-15.64s-39.96,12.92-46.59,23.89c0,0-2.06-12.16,5.54-19.22,0,0-8.78-.29-8.69,18.93,0,0-6.52-4.98-16.06,2.78,0,0,9.73-3.31,15.39,1.34,0,0-21.69,10.19-21.26,30.33.42,20.14-1.28,31.55,6.63,50.46,0,0,11.43,2,13.23,13.3,0,0,3.17,1.58,3.27-2.01s-1.48-15.42,1.48-22.5,8.45-11.41,9.82-20.7,2.01-13.27,1.9-15.61c0,0,6.55.72,11.2-2.34s17.32-7.71,26.41-4.23c9.08,3.49,21.13,15.42,45,19.01,23.87,3.59,23.87,2.54,23.87,2.54,0,0,.42,6.34,1.8,13.52s2.37,20.19,1.7,26.78Z"/>
          <path class="cls-4" d="M413.48,210.57s-1.85,2.34-1.61,2.97,3.22.93,4.49,2.63,3.95-3.76,5.46-5.22,2.54-1.22,2.97-.39-.83,3.76-1.61,5.07-6.88,11.66-8.05,13.7-2.49,5.12-3.66,4.78-1.76-1.22-.49-4,2.54-5.9,1.41-6.63-2.63-.34-3.41.78-3.61,6.53-5.27,6.19-.88-5.32-.44-7.02,1.02-2.88.39-3.22-1.22,1.65-2,1.8-1.9.39-2.29-1.31.98-15.17,2.97-17.9c2-2.73,3.27-.78,4,2.05s.29,5.85,1.95,4.97c1.66-.88,4.78-7.22,7.27-7.8,2.49-.59,2.83.83,2.34,1.71s-3.38,5.32-4.44,6.83Z"/>
          <path class="cls-4" d="M436.74,201.83s-1.69,1.98-1.69,3.27,1.59.5,3.77-1.64c2.18-2.13,7.34-8.29,17.37-8.68s20.94,3.37,30.47,7.44c9.53,4.07,27.19,14.39,40.39,16.57,13.2,2.18,22.23,2.48,22.53-1.19.3-3.67-5.66-4.56-8.93-4.07-3.27.5-27.49-4.76-43.27-11.02-15.78-6.25-18.36-7.54-18.36-8.24s5.36,1.89,6.85,1.89,1.49-1.89,1.98-2.58,4.86,1.89,14.19,3.67,11.31,2.28,11.02,0c-.3-2.28-3.18-4.17-2.18-5.26s5.95-1.59,17.66,5.06c11.71,6.65,13.99,13.5,15.88,13.69s.89-2.81-.99-4.88c-1.89-2.07-5.66-7.92-20.54-15.27-14.89-7.34,3.08-2.58,4.86-2.38s5.16.1,8.24,1.69c3.08,1.59,8.44,10.12,11.21,12.01s2.18-3.47-1.39-8.34c-3.57-4.86-10.92-13.2-17.27-15.48-6.35-2.28-2.18,1.49-3.08,2.98s-8.63-3.87-14.19-5.76-12.7-3.97-13-2.28,12.31,5.76,13,6.95-4.56-.1-6.35.5,3.27,3.47,2.98,5.06-7.43.89-15.58-1.19c-8.14-2.08-23.52-8.14-38.31-8.63s-23.72,6.85-25.11,10.12,1.49.5,4.66-.99,16.28-7.74,31.95-3.08c0,0,3.08.87,2.88,1.92s-3.57,1.15-3.57,2.34,2.08,3.08-.1,3.67-18.16-2.88-27.99,12.11Z"/>
          <path class="cls-4" d="M440.14,168.08s-7.13,3.95-7.77,6.11,3.31.04,6.37-1.76,14.39-8.94,25.73-8.04,24.2,2.93,35.79,6.5c11.59,3.57,15.03,1.27,14.01,0s-9.55-1.66-13.5-3.06c-3.95-1.4-18.88-7.13-27.4-7.13s-16.03-2.17-33.23,7.39Z"/>
          <path class="cls-21" d="M450.21,239.04s-9.99,1.09-13.36,4.78c-3.37,3.69.22,3.58,1.95,2.93,1.74-.65,7.28-1.63,13.57-1.85,6.3-.22,15.42-3.91,18.68-9.67,3.26-5.76-1.3-7.38-2.28-5.65-.98,1.74-7.49,7.29-11.4,8.43-3.91,1.13-7.17,1.02-7.17,1.02Z"/>
          <path class="cls-21" d="M505.26,229.7s-1.63.76-.76,4.45,9.12,7.71,14.55,8.91c5.43,1.19,10.32,1.09,13.03,2.39s4.02,2.28,4.02.98-1.63-6.08-6.19-6.84c-4.56-.76-14.55-2.61-18.14-5.43s-4.89-5.32-6.52-4.45Z"/>
          <path class="cls-19" d="M482.35,222.97s-1.41.65-1.52,1.52.54,1.95,2.61.54c2.06-1.41,3.91-2.61,5.86-1.52,1.95,1.09,3.91,2.01,6.41,2.2s2.06-1.98,1.09-2.09-4.02-.33-6.08-1.74c-2.06-1.41-6.89-1-8.36,1.09Z"/>
          <path class="cls-19" d="M478.05,228.92c-.19.6-.04,1.26-.02,1.88.04,1.33-.11,2.74-.55,4.03-.26.75-1.27,2.58.28,2.51.71-.03,1.14-.72,1.41-1.29.66-1.38.92-3.06.98-4.58.04-.98-.01-2.86-1.31-3.04-.46-.07-.69.16-.8.5Z"/>
          <circle class="cls-24" cx="517.4" cy="265.11" r="12.55"/>
          <ellipse class="cls-24" cx="454.55" cy="265.11" rx="13.26" ry="12.55"/>
          <path class="cls-14" d="M441.29,259.19s-.85,1.99-.54,4.02c.14.91.8-1.64,3.39-4.02,2.59-2.38,4.3-4.34,9.02-4.69,4.72-.35,10.73,1.5,13.43,7.55,0,0,.32.52.7.87s.38-2.94-.73-4.86-3.64-5.87-10.84-6.43c-7.2-.56-11.48,2.34-14.43,7.55Z"/>
          <circle class="cls-14" cx="517.05" cy="270.57" r="6.54"/>
          <circle class="cls-14" cx="457.85" cy="270.25" r="6.54"/>
          <g>
            <path class="cls-28" d="M465.13,324.78c5.83-6.5,16.88-10.1,25.21-6.77,12.7,5.08,10.16,14.79,9.26,16.43s-2.39,2.39-8.96,0-18.82,1.71-21.81,1.53-5.98-1.38-6.12-5.11c-.09-2.36.91-4.38,2.43-6.07Z"/>
            <g class="cls-33">
              <path class="cls-23" d="M495.89,339.08c-.2,0-1.4-2.36-1.54-2.57-7.66-11.68-22.92-16.67-36.42-15.83-.78.05-1.57.12-2.34.23-3.96.55,1.32,18.83,1.32,18.83,0,0,38.97-.66,38.98-.66Z"/>
              <path class="cls-24" d="M502.27,323.33s-11.34-2.09-18.06-2.31c-6.72-.22-24.44-.88-24.44-.88l30.28-9.14s20.04,10.24,20.48,10.24-8.26,2.09-8.26,2.09Z"/>
            </g>
          </g>
          <path class="cls-22" d="M486.91,344.13c-.25,0-.5-.1-.7-.29-1.17-1.17-3.02-1.62-4.6-1.12-.58.18-1.18.5-1.88.99-.45.31-1.06.2-1.37-.24-.31-.45-.2-1.06.24-1.37.87-.61,1.63-1,2.41-1.25,2.26-.72,4.91-.07,6.59,1.61.38.38.38,1.01,0,1.39-.19.19-.44.29-.7.29Z"/>
          <path class="cls-19" d="M490.38,304.81c-1.72,0-3.46-.35-5.13-1.04-.67-.28-.99-1.05-.71-1.72.28-.67,1.04-.99,1.72-.71,2.66,1.1,5.52,1.12,8.06.04,7.48-3.16,4.88-11.32,1-20.86-.76-1.87-1.48-3.64-1.93-5.12-1.48-4.86-3.5-11.52-.74-16.88.33-.64,1.12-.9,1.77-.57.64.33.9,1.12.57,1.77-2.27,4.41-.5,10.24.92,14.92.41,1.36,1.11,3.08,1.85,4.9,3.21,7.9,8.06,19.84-2.41,24.26-1.58.67-3.27,1.01-4.96,1.01Z"/>
          <path class="cls-3" d="M540.08,277.66s-.91,8.23-.91,8.23c1.07-2.4,2.39-4.73,3.85-6.92,1.01-1.51,2.12-2.95,3.45-4.2.66-.62,1.37-1.19,2.13-1.68s1.58-.91,1.95-1.76c.45-1.04-.7-1.72-1.6-1.68-1.48.07-2.75,1.23-3.89,2.06-1.66,1.2-3.01,2.73-4.1,4.45-.24.38-.82,1.05-.87,1.5Z"/>
          <path class="cls-11" d="M408.17,280.61c.04-.52-1.48-2.16-1.8-2.54-.73-.86-1.53-1.67-2.41-2.37s-1.83-1.28-2.86-1.7c-.78-.31-2.37-.58-2.26-1.74.15-1.64,2.57-.94,3.48-.56,3.12,1.31,5.56,3.91,7.54,6.57,1.63,2.19,2.88,4.66,3.68,7.26.57,1.86,1.13,4.05.96,6.02-.06.73-.43,1.79-1.37,1.45-.93-.34-1.2-1.56-1.36-2.42-.25-1.29-.49-2.58-.87-3.83-.3-1-.73-2.85-1.83-3.3-1.34-.55-2.23,1.27-2.7,2.2-.28.55-.55,1.18-1.23,1.32s-1.19-.44-1.33-1.08c-.19-.86-.07-1.83.4-2.61.55-.91,1.49-1.31,2.39-1.79.28-.15,1.44-.54,1.56-.81,0-.02.01-.04.01-.06Z"/>
          <path class="cls-14" d="M506.28,258.46s-1.3,1.87-1.77,3.66-.12,2.32.39,1.91,3.92-9.2,12.14-8.8c8.22.4,11.45,5.96,12.55,7.96,0,0,.67.53.57-.53s-.93-5.53-4.36-7.59c-3.43-2.07-5.43-2.5-8.75-2.7-1.81-.11-7.5.33-10.77,6.1Z"/>
          <circle class="cls-13" cx="484.44" cy="290.32" r="19.11"/>
          <path class="cls-6" d="M472.67,435.62l15.24-28.38,11.3-22.47,2.89-8.28s.48-1.54,1.53-1.21-1.1,5.73-1.1,5.73c0,0-3.29,9.65-6.58,15.39s-12.44,23.82-12.44,23.82c0,0-7.5,14.25-10.03,17.58s-3.46,6.96-3.29,8.09-.17,29.89-.17,29.89c0,0,.34,23.64.51,28.18s1.92,34.39,2.1,50.11,2.1,84.15,2.1,84.15l2.26,48.1h-1.91s-1.22-20.51-1.75-30.46c-.52-9.95-2.97-96.37-2.97-96.37,0,0-1.75-51.5-1.75-58.84s-.81-54.35-.32-56.33c0,0,.82-4.21,2.59-6.46l-25.77-46.67-5.77-14.02s-.96-1.63.82-1.95,4.74,11.16,11.41,22.71c6.67,11.55,20.22,37.73,20.22,37.73,0,0,.45.73.87-.05Z"/>
          <path class="cls-26" d="M335.71,382.24c-2.82-2.66-12.41-1.13-12.41-1.13,0,0-19.1,1.29-22.09,2.18-2.98.89-20.47,16.28-20.47,16.28l16.52-16.28s4.43-3.71,12.74-6.69c8.3-2.98,12.9-6.85,13.86-10.24.97-3.39-1.61-4.92-3.55-4.92s-20.39,5.64-25.47,7.01c-5.08,1.37-8.22,4.43-8.22,4.43,0,0-18.46,23.54-19.02,28.53-.56,5,4.35,9.03,4.35,9.03v3.95c0,2.18,4.76,8.62,4.76,8.62l14.23,26.11c.87,2.76.43,13.41.16,18.54,3.75,1.06,8.22,1.96,13.48,2.45,9.21.86,15.4-.4,19.4-2.01l-.12-12.84,1.93-4.84c2.18-4.76.89-9.75-.89-15.56s-7.82-8.06-7.82-8.06c2.42-2.82,3.63-7.74,3.63-7.74l.48,2.66s.24.97,2.58,1.13c2.34.16,5.4-2.18,6.21-6.13.81-3.95-2.02-9.11-2.02-9.11,0,0,1.93-6.93.48-9.43-1.45-2.5-9.35-4.84-9.35-4.84,5-.32,11.69-1.53,14.51-3.14,2.82-1.61,4.92-5.32,2.1-7.98Z"/>
          <path class="cls-2" d="M283.14,377.42s2.09-4.92,5.23-7.38c3.14-2.47,18.17-6.02,18.17-6.02,0,0,12.47-4.54,15.77-3.72s4.21,4.21,2.73,6.85-2.31,5.2-11.4,9.08c-9.08,3.88-9.58,4.87-9.58,4.87,0,0,2.23.17,3.63,0s11.98-.91,14.37-.91,12.06-1.01,13.96.98,2.97,5.13,1.07,7.61c-1.9,2.48-5.78,4.29-9.66,4.54s-4.05,0-4.05,0c0,0,6.61,2.31,7.19,6.44s-1.4,7.76-1.4,7.76c0,0,2.64,5.45,1.9,8.38-.74,2.93-1.32,8.18-7.02,8.63,0,0-2.24-.09-3.14-1.65l-1.49,2.97s5.95,5.37,7.35,10.16c1.4,4.79,2.23,9.66-.66,11.98,0,0-.04-.25.38-2.48s-.29-6.02-2.61-10.07-3.75-7.53-5.72-8.14l-1.88,2.03s-1.82.17-.99-1.98,3.06-3.39,4.29-6.94,2.06-2.31,2.31-1.24.21,3.33.21,3.33c0,0,3.34,1.13,5.08-1.84s2.48-9,.41-11.4-10.9-2.97-10.9-2.97l-14.4,14.54s-1.46,1.07-1.54,0-.08-1.16.41-1.9,13.79-13.71,13.79-13.71c0,0,2.06-1.72,3.63-1.11,1.57.61,6.75,1.1,8.92,2.84.91-3.88,1.59-6.04.17-8.34s-10.49-5.37-16.1-4.13c-5.62,1.24-19.66,16.19-19.66,16.19,0,0-2.23,1.57-2.23.08s6.94-7.35,6.94-7.35l10.08-8.59s2.73-2.48,5.95-2.64c3.22-.17,13.96,0,18-1.73,4.05-1.73,4.71-2.31,4.05-2.56s-6.19,1.24-7.93-2.06-1.16-3.8-1.16-3.8l-23.95,1.9-20.07,16.52s-2.95,1.88-2.62.16,6.97-6.15,6.97-6.15c0,0,9.93-9.18,12.14-12.46,2.21-3.28,14.76-6.73,18.04-8.94,3.28-2.21,5.99-3.77,6.56-6.15,0,0-3.28,2.05-5.41,1.89-2.13-.16-5.01-1.59-5.33-4.02,0,0-18.78,3.94-21.98,6.89-3.2,2.95-5.61,5.81-6.83,5.77Z"/>
          <path class="cls-26" d="M313.83,364.26s1.56,2.3,3.61,2.13,5.5-2.13,5.5-2.13c0,0,.04-2.04-2.05-2.3s-7.05,2.3-7.05,2.3Z"/>
          <path class="cls-26" d="M327.53,382.72s1.23,3.03,3.44,3.36c2.21.33,5,0,5.33-1.31s-1.31-2.87-3.61-2.95-4.67,0-5.17.9Z"/>
          <path class="cls-15" d="M800.76,394.7c-1.86-.62-8.08.25-8.08.25v-1.24c-.12-.99-2.98-2.36-6.09-2.36s-27.35,7.09-27.35,7.09l-17.9-.12s-15.91-.37-14.42-2.73c1.49-2.36,17.03-8.33,19.02-9.94,1.99-1.62,4.97-8.83-2.36-10.32-7.33-1.49-21.88,7.46-25.36,9.7-3.48,2.24-17.28-1.74-29.09,5.35-11.81,7.09-9.82,17.03-11.93,20.01-2.11,2.98-7.52,14.59-7.52,14.59h0c5.37,3.97,15.19,10.27,26.91,13.41,1.49.4,2.88.73,4.19,1.02l4.89-11.24s.62-.99,1.86-1.49c1.24-.5,22.38-3.23,22.38-3.23,0,0,26.11-3.61,27.47-3.61s11.19-4.23,11.19-4.23l12.93-5.97s8.95-2.11,14.54-3.98c5.59-1.86,9.95-4.6,9.82-6.09-.12-1.49-3.23-4.23-5.1-4.85Z"/>
          <path class="cls-2" d="M800.43,393.65c-1.77-.18-6.55,0-6.55,0,0,0-1.42-3.45-5.05-3.63-3.63-.18-21.42,5.4-21.42,5.4l-8.17,3-9.88-.44s-1.15.53-1.15,1.42,3.01,1.33,3.01,1.33h15.67l7.97-2.21-9.83,5.4h-15.58s-1.33-.18-1.24.8c.09.97,1.95.8,1.95.8h15.93s13.99-7.52,13.99-7.52c0,0,4.43-2.83,8.14-2.21,3.72.62,5.58,1.68,5.05,2.83-.53,1.15-2.48,2.57-2.48,2.57l-18.94,11.95s-8.59,4.87-12.57,5.49c-3.98.62-28.15,3.89-28.15,3.89,0,0-1.33,1.24,0,1.24s27.88-3.1,27.88-3.1l18.15-8.41,23.81-6.99s4.78-1.59,5.75-4.69c.97-3.1-4.51-6.73-6.28-6.9ZM785.41,394.05c-2.02.2-8.1,2.85-8.1,2.85l-9.53.83-1.43-.2,5.31-1.73s14.8-4.28,17.27-4.22,2.58,2.46,2.58,2.46c0,0-4.08-.2-6.11,0ZM802.64,402.15c-2.04,1.68-20.27,6.73-20.27,6.73,0,0,2.12-1.33,6.11-4.07,3.98-2.74,6.9-5.22,6.99-6.2.09-.97-2.04-3.19-2.04-3.19h4.16c2.21,0,4.34.71,6.37,2.48,2.04,1.77.71,2.57-1.33,4.25Z"/>
          <path class="cls-2" d="M690.84,403.3s-1.33,1.06-1.24,2.04,1.77,0,1.77,0c0,0,7.43-6.49,12.75-6.46,17.26.09,29.48,4.87,31.25,4.51s1.24-1.86.53-2.04-17.79-3.98-23.46-4.25-14.52-.89-21.6,6.2Z"/>
        </g>
        <path class="cls-6" d="M717.66,362.03c-2.14-4.83-4.29-9.66-6.43-14.49-.36-.81-1.54-1-2.25-.59-.83.49-.95,1.43-.59,2.25,2.14,4.83,4.29,9.66,6.43,14.49.36.81,1.54,1,2.25.59.83-.49.95-1.43.59-2.25h0Z"/>
        <path class="cls-6" d="M734.05,362.54c.46-5.62,1.55-11.16,3.21-16.54.62-2.02-2.55-2.89-3.17-.87-1.74,5.67-2.84,11.51-3.32,17.42-.07.88.81,1.64,1.64,1.64.95,0,1.57-.75,1.64-1.64h0Z"/>
        <path class="cls-6" d="M753.64,368.5c4.18-4.55,8.63-8.84,13.32-12.85.67-.58.59-1.73,0-2.32-.67-.67-1.65-.58-2.32,0-4.7,4.01-9.14,8.3-13.32,12.85-1.43,1.55.89,3.88,2.32,2.32h0Z"/>
      </g>
      <g>
        <path class="cls-10" d="M633.05,277.96c-.6,0-1.2-.09-1.8-.29-3.02-.99-4.66-4.25-3.66-7.26,3.99-12.11,16.44-17.8,26.84-21.41l.2-.07c8.82-3.06,17.94-6.22,21.65-13.1,2.7-5.01,2.05-12.12-1.63-17.69-3.89-5.87-10.67-9.78-17.7-10.19-7.03-.41-14.22,2.69-18.76,8.08-2.05,2.43-5.67,2.74-8.1.69-2.43-2.05-2.74-5.67-.69-8.1,6.83-8.11,17.64-12.76,28.22-12.15,10.58.61,20.79,6.48,26.63,15.32,6.04,9.14,6.89,20.72,2.16,29.49-5.84,10.83-18.13,15.09-28.01,18.51l-.2.07c-7.9,2.74-17.27,6.81-19.68,14.14-.8,2.42-3.05,3.95-5.46,3.95Z"/>
        <circle class="cls-10" cx="626.98" cy="296.05" r="8.96"/>
      </g>
    </g>
  </g>
</svg>