<?xml version="1.0" encoding="UTF-8"?>
<svg xmlns="http://www.w3.org/2000/svg" viewBox="0 0 1029.86 704.75">
  <defs>
    <style>
      .cls-1 {
        fill: #e4c0a4;
      }

      .cls-1, .cls-2, .cls-3, .cls-4, .cls-5, .cls-6, .cls-7, .cls-8, .cls-9, .cls-10, .cls-11, .cls-12, .cls-13, .cls-14, .cls-15, .cls-16, .cls-17, .cls-18, .cls-19, .cls-20 {
        stroke-width: 0px;
      }

      .cls-21 {
        opacity: .05;
      }

      .cls-22, .cls-23 {
        opacity: .12;
      }

      .cls-2 {
        fill: #8585dd;
      }

      .cls-3 {
        fill: #5c5cb7;
      }

      .cls-4 {
        fill: ivory;
      }

      .cls-23 {
        mix-blend-mode: multiply;
      }

      .cls-5 {
        fill: #e6e6ff;
      }

      .cls-6 {
        fill: #c0bebe;
      }

      .cls-7 {
        fill: #c8e7f5;
      }

      .cls-8 {
        fill: #182233;
      }

      .cls-9 {
        fill: #000;
      }

      .cls-10 {
        fill: #f3762a;
      }

      .cls-11 {
        fill: #e4e4e4;
      }

      .cls-12 {
        fill: #f9e448;
      }

      .cls-13 {
        fill: #9ba7ae;
      }

      .cls-24 {
        opacity: .32;
      }

      .cls-25 {
        opacity: .26;
      }

      .cls-26 {
        opacity: .47;
      }

      .cls-14 {
        fill: #3d3a7e;
      }

      .cls-15 {
        fill: #d2b5a1;
      }

      .cls-27 {
        isolation: isolate;
      }

      .cls-16 {
        fill: #fff;
      }

      .cls-17 {
        fill: #d4f1f0;
      }

      .cls-18 {
        fill: #1d2223;
      }

      .cls-19 {
        fill: #f4cdaf;
      }

      .cls-20 {
        fill: #1d1611;
      }
    </style>
  </defs>
  <g class="cls-27">
    <g id="Layer_2" data-name="Layer 2">
      <g id="Layer_1-2" data-name="Layer 1">
        <g>
          <path class="cls-5" d="M985.12,544.02H134.22c-24.61,0-44.74,12.2-44.74,27.11h0c0,10.32,9.66,19.34,23.76,23.92H44.74c-24.61,0-44.74,12.2-44.74,27.11h0c0,14.91,20.13,27.11,44.74,27.11h23.87c-6.67,4.74-10.71,10.86-10.71,17.54v10.84c0,14.91,20.13,27.11,44.74,27.11h839.32c24.61,0,44.74-12.2,44.74-27.11v-10.84c0-14.91-20.13-27.11-44.74-27.11l-52.11.6c3.97,0,10.41-1.9,14.74-5.71,7.58-6.69,7.92-16.87,4.21-25.29-2.4-5.46-6.25-9.79-15.79-11.42l92.11.37c24.61,0,44.74-12.2,44.74-27.11h0c0-14.91-20.13-27.11-44.74-27.11Z"/>
          <g>
            <polygon class="cls-14" points="120.64 103.79 99.59 120.63 60.01 228.42 78.53 249.47 104.36 231.15 127.38 115.58 120.64 103.79"/>
            <polygon class="cls-20" points="926.23 620.92 926.64 632.74 903.12 645.27 890.75 633.79 902.3 621.61 925.82 609.09 926.23 620.92"/>
            <polygon class="cls-10" points="891.47 327.78 936.55 335.91 909.61 455.78 927.35 617.07 903.78 622.45 841.96 427.79 841.79 369.61 846.39 335.17 891.47 327.78"/>
            <polygon class="cls-10" points="778.24 271.12 776.72 422.07 805.84 616.66 827.99 616.62 841.69 437.01 871.71 257.38 778.24 271.12"/>
            <polygon class="cls-20" points="827.85 614.02 827.87 625.84 803.94 637.71 791.94 625.9 803.9 614.06 827.85 614.02"/>
            <path class="cls-8" d="M950.73,340.81c-.3,6.7-9.87,50.33-7.83,51.53-10.05-3.53-20.25-6.63-30.56-9.32-27.13-7.06-55.03-11.19-83.04-12.31-12.69-.51-26.05-1.34-38.59.94-6.15,1.12-12.17,2.83-18.22,4.38-1.55.4-17.6,3.31-17.63,3.56,2.87-19.33,2.05-38.68,3.36-58.18,1.32-19.72,3.75-39.36,7.29-58.8,5.55-30.46,20.92-55.73,33.2-83.98,6.1-14.02,11.76-28.33,19.64-41.49,6.17-10.3,16.93-25.23,28.95-29.14,4.07-1.32,8.45-1.17,12.72-1.01,12.97.5,25.93,1,38.9,1.5,4.73.18,9.64.41,13.81,2.65,6.25,3.35,9.44,10.36,12.2,16.89,12.37,29.28,19.42,60.42,22.4,92.25,1.56,16.62,2.91,33.26,3.71,49.92.9,18.59,1.12,37.23.18,55.81-.1,2.06-.17,7.86-.48,14.8Z"/>
            <path class="cls-7" d="M873.03,187.22c-1.05,8.34-.57,16.78-.08,25.16,2.95,51.01,15.82,113.57,18.77,164.58-32.7-6.05-73.15-6.77-117.24-1.45,2.53-18.87,8.19-55.89,10.73-74.76,1.62-12.1,3.26-24.23,6.31-36,4.92-18.99,13.41-36.6,21.84-54.04,15.58-32.23,31.15-64.46,46.73-96.7.83-1.72,1.71-3.5,3.11-4.69,1.68-1.42,3.86-1.79,5.95-2.06,10.07-1.3,21.4-2.21,31.27.13,1.8,10.54-8.62,27.95-12.69,37.36-5.91,13.7-12.78,27.24-14.69,42.47Z"/>
            <g>
              <path class="cls-11" d="M838.21,41.44c-2.13,6.59-2.33,13.72-1.22,20.55.3,1.82.61,3.92-.63,5.29-1.32,1.46.57,3.68-.93,2.4s-6.64-5.73-7.22-7.61c-1.36-4.41-2.31-8.96-2.81-13.55-.44-3.99-.49-8.25,1.45-11.77,1.15-2.09,2.92-3.75,4.66-5.38,2.53-2.35,5.15-4.74,8.34-6.05,5.51-2.26,9.45-.94,5.23,4.11-3.03,3.62-5.41,7.49-6.87,12.01Z"/>
              <path class="cls-19" d="M889.88,110.9l-18.45,5.69c-2.69.83-5.58-.59-6.53-3.24-1.83-5.08-3.37-10.26-4.63-15.52-7.11.26-15.65-.28-19.5-6.98-1.21-2.11-1.75-4.57-2.27-6.98-2.15-9.95-4.31-19.9-6.46-29.85-.74-3.44-1.49-6.99-.98-10.44.9-6.05,5.46-10.49,10.19-13.67,12.05-8.12,27.44-11.11,41.2-6.01,3.66,1.36,7.26,3.34,9.86,6.5,4.02,4.87,5.07,11.71,5.94,18.12.81,5.92,1.61,11.83,2.42,17.75.93,6.81,1.53,14.74-2.94,19.36-2.37,2.46-5.87,3.55-7.75,6.48-3.31,5.17.21,12.4-.08,18.8Z"/>
              <path class="cls-11" d="M837.92,90.03c2.53,5.95,6.76,11.24,12.54,13.67,6.55,2.75,13.79,1.54,20.62.28,3.73-.69,7.47-1.38,11.2-2.06,9.45-1.74,18.55-4.91,21.32-15.82,1.28-5.03.88-10.49-.53-15.57-.39-1.4-.87-2.81-1.79-3.89-.92-1.08-2.39-1.75-3.65-1.3-1.62.58-2.24,2.58-3.03,4.2-1.71,3.53-5.49,6.09-9.17,5.16-1.09-.28-2.1-.82-3.1-1.38-.41-.23-.82-.46-1.24-.67-4.13-2.11-8.73-2.51-13.17-2.17-3.86.29-9.67.07-11.79,3.84-1.23,2.2-2.46,4.4-3.7,6.59-.51.91-1.03,1.83-1.79,2.5-.78.69-1.77,1.07-2.77,1.3-2.52.57-5.59,0-6.98-2.38-.61-1.04-.81-2.27-1.1-3.44-.29-1.18-.73-2.4-1.65-3.13-3.49-2.82-3.17,2.76-2.89,4.63.48,3.31,1.37,6.57,2.67,9.64ZM863.89,86.4c3.4,1.38,6.52.76,9.62-.93,1.59-.87,2.9,1.83,1.32,2.69-3.74,2.03-7.71,2.73-11.79,1.07-1.7-.69-.86-3.53.85-2.83Z"/>
              <path class="cls-11" d="M822.55,26.68c-1.16-2.28-2.16-4.64-2.99-7.06,2.47.33,5.02.02,7.34-.89-.29-1.43-.59-2.87-.88-4.3-.24-1.19,15.71-5.4,17-5.78,12.06-3.57,23.07-6.87,35.54-2.6,10.65,3.64,18.48,10.77,22.21,21.4,3.57,10.15,3,24.5-1.23,34.43-.55-2.79-.32-9.68-1.52-12.18-.95-2.56-2.4-4.93-4.16-7.02-3.5-4.18-8.23-7.33-13.33-9.21-8.13-3-16.99-3.64-25.58-3.06-7.87.53-17.4,1.49-24.53,5.1-3.43,1.73-3.84,2.77-6.81-.44-.52-.57-5.17-7.47-4.87-7.54,1.27-.29,2.54-.57,3.81-.86Z"/>
            </g>
            <polygon class="cls-8" points="847.4 108 822.13 116.42 753.08 216.63 758.13 236 783.4 236 847.4 108"/>
            <polygon class="cls-13" points="429.57 111.92 450.93 121.57 511.07 244.33 504.48 270.69 470.7 261.63 419.62 154.53 429.57 111.92"/>
            <path class="cls-20" d="M348.02,613.04v20.35l13.57,13.57h10.53c4.51,0,7.45-4.75,5.43-8.79l-2.39-4.78-6.78-13.57-6.78-13.57-13.57,6.78Z"/>
            <path class="cls-20" d="M415.39,609.83v20.35l13.57,13.57,11.25-3.75c4.18-1.39,5.43-6.7,2.32-9.82h0l-6.78-13.57-6.78-13.57-13.57,6.78Z"/>
            <polygon class="cls-14" points="303.03 374.88 326.83 498.17 342.73 615.8 368.23 615.8 381.76 496.43 392.65 355.93 303.03 374.88"/>
            <polygon class="cls-14" points="450.78 364.03 456.68 486.3 438.94 614.19 413.64 615.51 403.27 488.24 377.9 374.88 450.78 364.03"/>
            <g>
              <path class="cls-19" d="M388.84,114.27c7.7,2.34,15.4,4.68,23.09,7.01,2.59-6.68,4.72-13.57,6.34-20.58,7.08.19,15.58-.44,19.39-7.28,1.2-2.15,1.73-4.65,2.25-7.1,2.12-10.11,4.25-20.23,6.37-30.34.73-3.5,1.47-7.11.96-10.6-.91-6.12-5.46-10.58-10.16-13.76-12.01-8.11-27.33-10.99-41-5.67-3.64,1.41-7.22,3.46-9.8,6.69-3.99,4.99-5.02,11.93-5.87,18.44-.79,6.01-1.58,12.02-2.37,18.03-.91,6.91-1.49,14.96,2.96,19.61,2.37,2.47,5.85,3.54,7.72,6.49,3.3,5.21-.18,12.58.12,19.06Z"/>
              <path class="cls-6" d="M411.53,45.78c-6.15,5.6-12.74,10.41-20.6,13.16-4.83,1.69-9.57,1.92-10.94,7.84-1.3,5.64,1.2,12.6,5.26,16.39.7.65,1.47,1.28,1.85,2.16.74,1.75-.48,3.89-2.2,4.67-1.72.78-3.71.5-5.5-.06-5.42-1.72-9.82-5.9-12.89-10.77-6.46-10.26-7.35-23.63-3.61-35.28,3.69-11.49,11.64-21.92,21.56-28.45,9.15-6.03,18.27-12.37,29.78-10.64,6.48.97,17.02,6.93,15.71,15.1-1.37,8.58-12.5,20.13-18.41,25.88Z"/>
              <path class="cls-6" d="M431.26,47.19c3.81,4.29,8.43,8.51,9.26,14.07.37,2.43-.05,4.9-.54,7.3-.87,4.3-1.95,8.55-3.25,12.75-1.35,4.36-3.24,9.26-7.01,12.21-1.53,1.2-11.61,5.57-4.24,8.17,2.15.76,4.49-.2,6.48-1.25,15.75-8.29,27.53-23.89,29.07-41.22.93-10.44-2.18-21.23-8.4-29.9-5.69-7.92-17.63-18.43-28.54-14.6-14.54,5.1,1.46,26.05,7.17,32.48Z"/>
            </g>
            <path class="cls-13" d="M455.05,164.41c1.66-14.97-.41-37.35-14.17-46.65-11.89-8.03-21.53-8.93-35.65-8.93h-26.84l-5.72.38s-46.14,30.48-67.56,115.34c-19.97,79.11-32.13,189.49-12.36,191.96.33.04.67,0,1.02-.09,2.97.4,11.37,1.51,23.5,2.77h0c15.51.88,31.08,1.16,46.61,1.08,26.76-.15,54.65,1.39,79.34-10.68,18.75-9.16,42.51-21.54,33.74-46.07-4.93-12.85-10.64-28.26-16.15-46.7-21.42-71.68-9.06-122.75-5.77-152.41Z"/>
            <polygon class="cls-14" points="372.66 109.22 352.06 117.46 282.33 227.26 287.27 252.8 366.89 301.17 380.9 280.58 313.34 216.32 366.89 161.94 372.66 109.22"/>
            <path class="cls-12" d="M486.42,171.92c-15.39-11.47-41.56-14.92-55.57-3.19,4.25-17.77-15.08-42.29-32.21-50.95-45.21-22.85-91.2,19-94.17,64.45-1.6,24.46,2.52,49.26,8.93,73.21,5.37,20.05,22.65,66.23,22.8,66.21.05.15,49.09-4.98,69.43-9.12,24.29-4.94,48.32-12.32,69.5-24.66,39.35-22.93,51.9-85.67,11.28-115.95Z"/>
            <g class="cls-23">
              <path class="cls-9" d="M463.66,285.69c-19.19,7.11-39.55,12.33-59.84,15.07-19.62,2.65-40.63,2.54-59.32-4.72-8.98-3.49-16.74-8.58-23.07-15.02,6.74,19.69,14.51,40.37,14.62,40.36.05.15,49.09-4.98,69.43-9.12,24.29-4.94,48.32-12.32,69.5-24.66,6.85-3.99,12.89-9.2,17.98-15.22-9.38,5.21-19.24,9.59-29.3,13.32Z"/>
            </g>
            <path class="cls-16" d="M472.35,272.13c-11.42-6.65-22.85-13.3-34.27-19.96,5.63-18.19,11.27-36.38,16.9-54.56.81-2.63-2.46-4.42-4.42-2.74-25.58,21.9-51.17,43.79-76.75,65.68-1.48,1.27-2.96,2.54-4.45,3.8,5.2-21.62,10.4-43.24,15.6-64.86.83-3.47,1.67-6.93,2.5-10.4.5-2.09-1.77-4.45-3.85-3.14-9.7,6.06-19.4,12.13-29.1,18.19-12.57-7.78-25.15-15.57-37.72-23.35-2.95-1.83-5.8,2.76-2.84,4.59,13.05,8.08,26.1,16.15,39.14,24.23.76.47,1.9.58,2.68.09,8.31-5.2,16.62-10.39,24.94-15.59-5.33,22.18-10.67,44.36-16,66.54-.83,3.47-1.67,6.93-2.5,10.4-.63,2.6,2.37,4.5,4.42,2.74,25.58-21.9,51.17-43.79,76.75-65.68,1.22-1.05,2.45-2.09,3.67-3.14-4.92,15.9-9.85,31.8-14.77,47.7-.34,1.1.16,2.47,1.17,3.05,12.02,7,24.04,14,36.06,21,3,1.74,5.85-2.84,2.84-4.59Z"/>
            <polygon class="cls-13" points="282.33 227.58 297.49 203.16 411.09 290.68 390.49 311.28 287.38 252.84 282.33 227.58"/>
            <polygon class="cls-13" points="511.07 244.33 493.66 218.87 416.32 191.6 406.44 208.9 485.1 265.49 504.48 270.69 511.07 244.33"/>
            <polygon class="cls-19" points="414.44 194.9 396.55 182.54 371.01 185.01 371.84 194.9 399.02 204.78 408.56 205.2 414.44 194.9"/>
            <polygon class="cls-13" points="248.66 290.49 251.98 432.37 227.41 615.66 206.85 615.9 191.86 447.23 161.72 278.74 248.66 290.49"/>
            <polygon class="cls-20" points="206.94 613.45 207.07 624.57 229.44 635.43 240.42 624.18 229.17 613.19 206.94 613.45"/>
            <polygon class="cls-20" points="136.97 618.81 154.65 633.84 150.23 642.68 117.52 635.61 117.52 618.81 136.97 618.81"/>
            <polygon class="cls-13" points="177.35 346.3 162.66 483.83 143.27 620.92 115.61 619.6 116.62 477.39 99.97 345.49 139.07 327.28 177.35 346.3"/>
            <path class="cls-14" d="M120.64,103.79l54.08-10.46s36.56,23.52,64.28,94.71c28.23,72.49,24.24,183.51,24.24,183.51,0,0-147.82,2.36-172.04,2.93l14.1-153.57,15.34-117.13Z"/>
            <path class="cls-19" d="M154.86,103.99c-4.75.05-10.09.56-14.89.65-1.91.04-3.44-1.56-3.32-3.47.28-4.35,1.39-9.16,1.73-13.16-5.42-1.53-11.73-3.94-13.01-9.43-.4-1.73-.21-3.53-.02-5.3.79-7.29,1.58-14.59,2.37-21.88.27-2.52.57-5.12,1.79-7.35,2.14-3.9,6.66-5.84,10.99-6.87,11.05-2.65,23.38-1,32.51,5.77,2.43,1.8,4.66,4.01,5.86,6.79,1.84,4.28.98,9.19.08,13.77-.83,4.22-1.66,8.45-2.48,12.67-.95,4.86-2.42,10.4-6.91,12.49-2.38,1.11-5.29,1.01-7.41,2.56-2.96,2.16-3.02,6.21-3.79,9.94-.34,1.65-1.81,2.8-3.49,2.82Z"/>
            <path class="cls-8" d="M215.26,28.03c-.18-4.96-1.19-9.92-2.46-14.37-2.18-7.65-11.54-10.57-19.49-10.63-17.18-.13-34.16-6.86-50.49.16-9.33,4.01-22.11,5.63-30.45,10.98-3.48,2.24-6.17,5.56-8.19,9.17-7.02,12.51-6.01,29.08,2.47,40.64,1.9,2.6,4.13,4.94,6.46,7.16,4.81,4.6,10.59,10.3,16.9,11.71-.2-5.55-6.36-22.72-2.39-27.53,6.3-7.64,21.74-6.09,30.24-4.84,9.27,1.36,17.83,7.32,26.98,8.13,6.59.58,14.71-3.14,20.04-6.87,8.36-5.83,10.72-14.76,10.39-23.72Z"/>
            <path class="cls-16" d="M159.89,103.45l52.41,119.65,20.29,148.53-75.06,1.57s8.63-110.03,5.53-124.39c-3.1-14.36-9.25-44.2-15.92-77.76-1.53-7.73-12.75-66.98-12.82-66.63l25.58-.97Z"/>
            <polygon class="cls-14" points="617.58 129.96 609.16 127.79 593.07 136.99 536.65 228.42 540.86 253.68 600.71 214.33 617.58 129.96"/>
            <g>
              <polygon class="cls-20" points="687.9 624.94 688.79 633.74 672.82 644.72 663.5 637 671.04 627.11 687.01 616.14 687.9 624.94"/>
              <polygon class="cls-15" points="687.51 355.76 690.21 382.5 666.26 474.36 688.5 621.99 672.13 627.64 628.97 483.51 622.12 441.58 622.37 352.82 687.51 355.76"/>
            </g>
            <g>
              <polygon class="cls-15" points="561.61 385.56 596.04 632.92 611.69 632.92 614.51 474.36 642.99 363.07 561.61 385.56"/>
              <polygon class="cls-20" points="611.6 630.97 611.6 639.85 594.68 648.74 586.21 639.85 594.68 630.97 611.6 630.97"/>
            </g>
            <path class="cls-14" d="M691.09,279.85c-8.9-51.62-22.69-101.74-27.67-154.31-13.17,0-31.35-6.11-45.06-2.47h0s-.23.05-.66.19c-4.98,1.46-9.35,4.25-12.61,9.19-.04.06-.07.11-.11.17-4.88,5.34-10.48,13.6-15.73,26.33-13.37,32.46-66.83,223.41-67.79,273.06.17.04.33.08.5.12,11.25,3.5,23.52,6.12,36.31,8.07.01,0,.03,0,.03,0h.01c37.39,5.69,79.23,5.64,113.26,5.06,4.49-.08,52.12,1.48,51.45-1.6-11.83-54.36-22.47-108.99-31.93-163.82Z"/>
            <polygon class="cls-14" points="661.34 127.92 674.87 136.25 713.54 240.1 709.29 264.63 685.71 262.95 651.79 155.61 661.34 127.92"/>
            <path class="cls-8" d="M600.04,50.52s-9.07,7.42-4.8,34.74c4.27,27.32,1.71,45.25,1.71,45.25,0,0,9.39,4.27,16.22,0,6.83-4.27,9.39-5.12,6.83-16.22-2.56-11.1-7.68-64.03-7.68-64.03l-12.27.26Z"/>
            <path class="cls-8" d="M624.22,59.75c-10.37,2.84-18.54,12.45-19.67,23.16-5.67-5.29-8.56-13.41-7.52-21.1,1.04-7.69,6-14.74,12.87-18.32,6.43,3.42,11.41,9.47,13.55,16.44l.77-.18Z"/>
            <path class="cls-19" d="M601.44,73.67c5.36-28.34,40.71-23.44,50.85-.49,5.77,13.05,4.42,38.55-11.81,42.82-.25,2.51-.57,7.21-2.49,8.89-2.07,1.82-8.61.09-11.17-.51-.71-.16-1.45-.37-1.97-.89-.64-.65-.75-2.38-.76-4.3-1.88-.13-3.8-.49-5.76-1.14-8.22-2.7-14.18-10.33-16.64-18.64-2.46-8.31-1.86-17.23-.25-25.75Z"/>
            <path class="cls-8" d="M608.89,43.42s-3.42,15.37,16.22,19.64c19.64,4.27,32.39,19.64,29,35.86-3.39,16.22-17.9,28.17-10.22,32.44,7.68,4.27,35.86,0,35.86,0,0,0,17.08-57.2-5.98-81.96-23.05-24.76-56.35-25.61-64.89-5.98Z"/>
            <polygon class="cls-10" points="498.89 375.17 461.66 367.53 441.61 334.12 432.06 341.75 446.38 386.63 477.89 405.72 498.89 375.17"/>
            <polygon class="cls-13" points="466.43 531.75 466.43 632.95 481.71 632.95 491.25 571.85 499.85 525.07 466.43 531.75"/>
            <polygon class="cls-13" points="499.85 521.25 505.58 565.17 513.21 635.82 528.49 634.86 528.49 580.44 536.13 525.07 499.85 521.25"/>
            <path class="cls-10" d="M492.69,373.74s-16.23-2.86-22.91,21.96c-6.68,24.82-24.82,97.38-25.78,135.57-.95,38.19,23.87,13.37,53.47,18.14,29.6,4.77,53.94,5.25,53.94-11.93s10.5-163.26-58.72-163.74Z"/>
            <path class="cls-19" d="M483.37,324.4c13.52-23.84,43.81-8.59,45.88,15.17,1.18,13.51-7.86,36.03-23.77,34.89-.99,2.18-2.73,6.31-4.97,7.23-2.42,1-7.77-2.57-9.89-3.88-.59-.37-1.19-.78-1.5-1.4-.38-.78.05-2.37.63-4.1-1.65-.69-3.27-1.61-4.83-2.79-6.56-4.96-9.58-13.64-9.24-21.87.34-8.23,3.62-16.07,7.68-23.24Z"/>
            <path class="cls-8" d="M502.24,318.2s21.63,5.41,21.63,14.42c0,13.55.9,22.64,0,30.7l15.32-9.07,9.01-25.24s-1.8-20.73-12.62-24.34c-10.82-3.61-33.35-7.21-33.35-7.21l-17.12,5.41-12.62-.9,4.36,37.85s5.55-27.04,25.38-21.63Z"/>
            <polygon class="cls-10" points="509.39 377.08 536.13 386.63 560 445.82 579.09 488.79 568.59 495.47 538.04 452.51 509.39 377.08"/>
            <polygon class="cls-19" points="568.59 495.47 575.27 505.02 579.09 501.2 590.55 501.2 579.09 488.79 568.59 495.47"/>
            <polygon class="cls-18" points="466.43 632.95 457.84 641.55 461.66 647.28 478.84 641.55 478.84 632.95 466.43 632.95"/>
            <polygon class="cls-18" points="515.76 635.66 518.94 648.23 529.44 652.05 535.17 649.19 526.28 635 515.76 635.66"/>
            <polygon class="cls-19" points="439.1 335.82 439.82 320.97 422.43 314.89 414.61 322.71 419.83 328.8 433.34 340.42 439.1 335.82"/>
            <polygon class="cls-19" points="605.7 256.5 599.56 270.47 599.56 322.35 608.99 323.14 622.36 278.33 605.7 256.5"/>
            <polygon class="cls-19" points="585.53 248.61 575.89 257.38 563.61 308.23 571.5 312.61 591.67 272.28 605.7 260.88 603.07 248.61 585.53 248.61"/>
            <path class="cls-10" d="M662.8,172.05s7.02,2.23,10.09,8.38c3.07,6.15,11.27,32.77,7.17,51.21-4.1,18.44-6.15,41.99-46.09,50.18-19.46,2.05-16.39-14.34-30.73-18.44-14.34-4.1-27.99-1.71-21.17-23.9,6.83-22.19,22.19-24.24,35.5-47.8,13.31-23.56,27.96-31.09,45.22-19.64Z"/>
            <polygon class="cls-10" points="667.74 174.63 697.76 192.49 721.43 201.26 718.8 211.78 694.25 210.03 669.7 199.51 667.74 174.63"/>
            <polygon class="cls-19" points="721.02 202.93 734.55 204 734.55 206.53 727.82 209.89 728.66 211.58 719.1 210.59 721.02 202.93"/>
            <polygon class="cls-10" points="638.14 165.31 612.71 168.82 594.41 157.58 589.92 163.56 605.7 181.1 624.11 186.36 638.14 165.31"/>
            <path class="cls-8" d="M653.86,121.11s-16.86,6.58-18.66,21.58c0,0-8.03-9.84-1.56-19.77s10.15-13.6,19.9-9.13c9.76,4.47.32,7.32.32,7.32Z"/>
            <path class="cls-19" d="M637.11,134.53c6.48-21.53,33.48-14.84,39.46,3.78,3.4,10.59.27,30.25-12.67,32.23-.4,1.92-1.04,5.54-2.66,6.69-1.76,1.24-6.68-.64-8.62-1.31-.54-.19-1.1-.4-1.45-.85-.45-.55-.39-1.91-.24-3.39-1.45-.25-2.91-.7-4.37-1.36-6.15-2.77-10.14-9.17-11.37-15.81-1.23-6.64-.03-13.51,1.92-19.98Z"/>
            <path class="cls-8" d="M649.18,126.15c5.91,9.62,17.88,12.71,23.47,22.02,0,0,3.66,6.09-.14,17.92,0,0,12.55,3.24,20.8-8.19,8.25-11.44.78-39.04.78-39.04,0,0-12.66-14.1-33.31-13.68-7.01.14-14.09,3.88-14.26,11.79-.07,3.38.96,6.44,2.65,9.18Z"/>
            <path class="cls-7" d="M667.95,174.96s-.88,11.4-7.01,11.4-19.15-5.36-21.04-7.89c-2.63-3.51,2.34-10.97,2.34-10.97l-4.09-2.18s-28.93,36.83-14.03,46.47c14.91,9.64,35.07,15.78,41.21,3.51,6.14-12.27,6.54-37.64,6.54-37.64l-3.91-2.69Z"/>
            <polygon class="cls-20" points="598.68 321.38 590.79 327.52 593.42 331.03 607.45 328.4 609.21 322.26 598.68 321.38"/>
            <polygon class="cls-20" points="572.38 310.86 564.49 305.16 557.48 304.72 555.72 309.98 570.63 315.24 572.38 310.86"/>
            <polygon class="cls-19" points="721.15 202.4 733.71 202.14 733.71 204.77 724.07 210.03 725.82 211.78 724.07 212.66 719.19 210.24 721.15 202.4"/>
            <polygon class="cls-19" points="593.94 158.38 591.67 153.92 585.53 153.04 582.9 157.42 584.66 162.68 590.01 163.24 593.94 158.38"/>
            <path class="cls-10" d="M898.63,127.93c-52.46,32.42-90.65,16.23-95.92,13.71,0,0-.22-.36-.31-.15-.21-.1-.15.32-.15.32-2.51,5.27-22,41.88-83.17,49.7,0,0,27.47,105.3,75.35,135.28,51.14,32.01,85.77,34.91,85.87,34.74.19.06,25.63-23.81,44.88-81.04,18.02-53.54-26.56-152.55-26.56-152.55Z"/>
            <path class="cls-2" d="M894.03,141.39c-47.68,29.2-82.17,14.97-86.93,12.75,0,0-.19-.32-.28-.13-.19-.09-.14.28-.14.28-2.3,4.72-20.15,37.48-75.58,44.79,0,0,24.31,93.8,67.5,120.29,46.14,28.29,78.31,33.13,78.41,32.97.17.05,22.5-23.82,40.24-74.99,16.6-47.87-23.23-135.96-23.23-135.96Z"/>
            <path class="cls-3" d="M809.85,163.27s-.05-.39.14-.3c.09-.2.3.14.3.14,4.88,2.28,39.71,16.65,88.15-11.63-3.54-9.19-6.08-14.82-6.08-14.82-47.68,29.2-82.17,14.97-86.93,12.75,0,0-.19-.32-.28-.13-.19-.09-.14.28-.14.28-2.3,4.72-20.15,37.48-75.58,44.79,0,0,1.55,5.98,4.56,15.35,55.47-8.49,73.5-41.59,75.86-46.44Z"/>
            <path class="cls-17" d="M887.7,172.09c-35.97,22.22-67.12,11.84-70.73,10.11,0,0-.15-.25-.21-.1-.14-.07-.1.22-.1.22-1.72,3.62-19.16,31.15-61.1,36.51,0,0,22.91,69.76,55.74,90.31,35.06,21.95,58.8,23.93,58.88,23.82.13.04,17.57-16.32,30.77-55.56,12.35-36.71-13.24-105.3-13.24-105.3Z"/>
            <polygon class="cls-1" points="405.63 296.03 424.92 307.34 431.07 331.93 419.65 334.56 404.72 317.88 392.65 308.87 405.63 296.03"/>
            <polygon class="cls-14" points="536.72 228.44 562.49 218.84 647.66 262.96 638.01 279.6 541.11 253.96 536.72 228.44"/>
            <polygon class="cls-19" points="645.37 266.73 653.32 265.66 659.6 266.44 659.6 269.35 666.71 266.6 661.96 277.44 648.61 279.79 639.26 277.27 645.37 266.73"/>
            <polygon class="cls-14" points="713.5 240.21 684.02 220 607.39 200.63 599.81 216.63 685.71 262.95 709.08 264.54 713.5 240.21"/>
            <polygon class="cls-19" points="606.55 202.26 592.25 206.38 587.18 214.5 589.66 224.92 594.28 218.55 601.26 213.59 606.55 202.26"/>
            <rect class="cls-10" x="100.23" y="131.98" width="165.97" height="220.91" transform="translate(68.56 -38.99) rotate(14.91)"/>
            <g class="cls-25">
              <polygon class="cls-9" points="89.01 321.83 91.41 322.47 231.87 364.57 281.93 161.7 274.85 161.84 89.01 321.83"/>
            </g>
            <rect class="cls-4" x="108.92" y="139.06" width="149.23" height="204.38" transform="translate(68.27 -39.11) rotate(14.91)"/>
            <g class="cls-21">
              <polygon class="cls-9" points="137.15 122.33 240.87 149.96 113.78 209.38 137.15 122.33"/>
            </g>
            <g>
              <g class="cls-22">
                <rect class="cls-13" x="176.93" y="141.35" width="64.81" height="6.07" transform="translate(44.21 -49.01) rotate(14.91)"/>
              </g>
              <path class="cls-13" d="M233.31,128.64l-.97-.26.17-.65c1.64-6.16-2.78-12.68-9.87-14.57l-9.34-2.49c-7.09-1.89-14.17,1.57-15.81,7.73l-.17.65-.97-.26c-7.09-1.89-14.17,1.57-15.81,7.73l-3.32,12.45,62.63,16.68,3.32-12.45c1.64-6.16-2.78-12.68-9.87-14.57ZM223.02,126.17l-16.5-4.39c-1.69-.45-2.7-2.19-2.25-3.88.45-1.68,2.19-2.69,3.88-2.24l16.5,4.39c1.69.45,2.7,2.19,2.25,3.88-.45,1.68-2.19,2.69-3.88,2.24Z"/>
            </g>
            <g class="cls-26">
              <path class="cls-18" d="M163.32,189.23c-7.06-1.88-14.11-3.76-21.17-5.64-.6-.16-1.24.21-1.4.81-1.87,7.04-3.75,14.08-5.62,21.12-.16.59.21,1.23.81,1.39,7.06,1.88,14.11,3.76,21.17,5.64.32.09.6.03.82-.1.02,0,.03-.02.05-.03,0,0,.02-.01.03-.02.23-.13.41-.34.5-.67,1.87-7.04,3.75-14.08,5.62-21.12.16-.59-.21-1.23-.81-1.39ZM156.59,210.05c-6.32-1.68-12.64-3.37-18.97-5.05,1.68-6.31,3.36-12.61,5.04-18.92,6.32,1.68,12.64,3.37,18.97,5.05-1.68,6.31-3.36,12.61-5.04,18.92Z"/>
              <path class="cls-18" d="M152.92,228.28c-7.06-1.88-14.11-3.76-21.17-5.64-.6-.16-1.24.21-1.4.81-1.87,7.04-3.75,14.08-5.62,21.12-.16.59.21,1.23.81,1.39,7.06,1.88,14.11,3.76,21.17,5.64.32.09.6.03.82-.1.02,0,.03-.02.05-.03,0,0,.02-.01.03-.02.23-.13.41-.34.5-.67,1.87-7.04,3.75-14.08,5.62-21.12.16-.59-.21-1.23-.81-1.39ZM146.2,249.1c-6.32-1.68-12.64-3.37-18.97-5.05,1.68-6.31,3.36-12.61,5.04-18.92,6.32,1.68,12.64,3.37,18.97,5.05-1.68,6.31-3.36,12.61-5.04,18.92Z"/>
              <path class="cls-18" d="M142.52,267.32c-7.06-1.88-14.11-3.76-21.17-5.64-.6-.16-1.24.21-1.4.81-1.87,7.04-3.75,14.08-5.62,21.12-.16.59.21,1.23.81,1.39,7.06,1.88,14.11,3.76,21.17,5.64.32.09.6.03.82-.1.02,0,.03-.02.05-.03,0,0,.02-.01.03-.02.23-.13.41-.34.5-.67,1.87-7.04,3.75-14.08,5.62-21.12.16-.59-.21-1.23-.81-1.39ZM135.8,288.14c-6.32-1.68-12.64-3.37-18.97-5.05,1.68-6.31,3.36-12.61,5.04-18.92,6.32,1.68,12.64,3.37,18.97,5.05-1.68,6.31-3.36,12.61-5.04,18.92Z"/>
            </g>
            <polygon class="cls-2" points="147.15 193.48 152.45 193.16 153.86 198.73 181.56 188.21 184.12 189.47 151.2 204.38 147.15 193.48"/>
            <polygon class="cls-2" points="134.73 233.05 140.02 232.72 141.43 238.3 169.13 227.77 171.69 229.03 138.77 243.94 134.73 233.05"/>
            <polygon class="cls-2" points="124.44 269.88 129.74 269.56 131.15 275.13 158.85 264.61 161.41 265.87 128.49 280.78 124.44 269.88"/>
            <g class="cls-24">
              <rect class="cls-18" x="151.13" y="289.28" width="77.29" height="10.93" transform="translate(82.25 -38.91) rotate(14.91)"/>
            </g>
            <g class="cls-24">
              <rect class="cls-18" x="162.14" y="247.93" width="77.29" height="10.93" transform="translate(71.97 -43.14) rotate(14.91)"/>
            </g>
            <g class="cls-24">
              <rect class="cls-18" x="173.16" y="206.57" width="77.29" height="10.93" transform="translate(61.7 -47.37) rotate(14.91)"/>
            </g>
            <polygon class="cls-8" points="913.08 111.36 929.08 122.31 978.77 236 961.93 261.26 936.66 246.95 913.08 111.36"/>
            <polygon class="cls-8" points="978.77 236 945.93 216.63 841.5 249.47 846.56 273.9 961.93 261.26 978.77 236"/>
            <polygon class="cls-19" points="842.34 254.53 817.08 256.21 799.4 269.68 807.82 278.11 829.71 274.74 845.01 268.94 842.34 254.53"/>
            <polygon class="cls-19" points="769.32 175.25 758.52 172.26 743.2 178.96 741.29 198.1 753.73 198.1 763.27 178.68 769.32 175.25"/>
            <polygon class="cls-14" points="60.01 228.42 86.11 212.42 191.38 200.63 194.75 219.16 102.48 251.63 78.53 249.47 60.01 228.42"/>
            <polygon class="cls-19" points="191.84 203.16 211.59 196.42 230.96 203.16 228.43 212.42 211.59 212.42 206.85 216.37 193.94 214.71 191.84 203.16"/>
            <polygon class="cls-19" points="249.71 145.72 258.75 141.81 275.22 149.71 276.54 169.47 266.66 169.47 254.14 146.86 249.71 145.72"/>
          </g>
        </g>
      </g>
    </g>
  </g>
</svg>